<svg width="555" height="59" viewBox="0 0 555 59" fill="none" xmlns="http://www.w3.org/2000/svg">
    <rect x="36" width="485" height="59" rx="9" fill="#4087E8" />
    <path d="M63.2844 36.216C62.2884 36.216 61.3224 36.084 60.3864 35.82C59.4624 35.544 58.7184 35.19 58.1544 34.758L59.1444 32.562C59.6844 32.958 60.3264 33.276 61.0704 33.516C61.8144 33.756 62.5584 33.876 63.3024 33.876C64.1304 33.876 64.7424 33.756 65.1384 33.516C65.5344 33.264 65.7324 32.934 65.7324 32.526C65.7324 32.226 65.6124 31.98 65.3724 31.788C65.1444 31.584 64.8444 31.422 64.4724 31.302C64.1124 31.182 63.6204 31.05 62.9964 30.906C62.0364 30.678 61.2504 30.45 60.6384 30.222C60.0264 29.994 59.4984 29.628 59.0544 29.124C58.6224 28.62 58.4064 27.948 58.4064 27.108C58.4064 26.376 58.6044 25.716 59.0004 25.128C59.3964 24.528 59.9904 24.054 60.7824 23.706C61.5864 23.358 62.5644 23.184 63.7164 23.184C64.5204 23.184 65.3064 23.28 66.0744 23.472C66.8424 23.664 67.5144 23.94 68.0904 24.3L67.1904 26.514C66.0264 25.854 64.8624 25.524 63.6984 25.524C62.8824 25.524 62.2764 25.656 61.8804 25.92C61.4964 26.184 61.3044 26.532 61.3044 26.964C61.3044 27.396 61.5264 27.72 61.9704 27.936C62.4264 28.14 63.1164 28.344 64.0404 28.548C65.0004 28.776 65.7864 29.004 66.3984 29.232C67.0104 29.46 67.5324 29.82 67.9644 30.312C68.4084 30.804 68.6304 31.47 68.6304 32.31C68.6304 33.03 68.4264 33.69 68.0184 34.29C67.6224 34.878 67.0224 35.346 66.2184 35.694C65.4144 36.042 64.4364 36.216 63.2844 36.216ZM76.6709 35.532C76.3949 35.736 76.0529 35.892 75.6449 36C75.2489 36.096 74.8289 36.144 74.3849 36.144C73.2329 36.144 72.3389 35.85 71.7029 35.262C71.0789 34.674 70.7669 33.81 70.7669 32.67V28.692H69.2729V26.532H70.7669V24.174H73.5749V26.532H75.9869V28.692H73.5749V32.634C73.5749 33.042 73.6769 33.36 73.8809 33.588C74.0969 33.804 74.3969 33.912 74.7809 33.912C75.2249 33.912 75.6029 33.792 75.9149 33.552L76.6709 35.532ZM78.2472 26.316H81.0552V36H78.2472V26.316ZM79.6512 24.966C79.1352 24.966 78.7152 24.816 78.3912 24.516C78.0672 24.216 77.9052 23.844 77.9052 23.4C77.9052 22.956 78.0672 22.584 78.3912 22.284C78.7152 21.984 79.1352 21.834 79.6512 21.834C80.1672 21.834 80.5872 21.978 80.9112 22.266C81.2352 22.554 81.3972 22.914 81.3972 23.346C81.3972 23.814 81.2352 24.204 80.9112 24.516C80.5872 24.816 80.1672 24.966 79.6512 24.966ZM83.6612 22.644H86.4692V36H83.6612V22.644ZM89.0753 22.644H91.8833V36H89.0753V22.644ZM105.473 26.172C106.673 26.172 107.639 26.532 108.371 27.252C109.115 27.972 109.487 29.04 109.487 30.456V36H106.679V30.888C106.679 30.12 106.511 29.55 106.175 29.178C105.839 28.794 105.353 28.602 104.717 28.602C104.009 28.602 103.445 28.824 103.025 29.268C102.605 29.7 102.395 30.348 102.395 31.212V36H99.587V22.644H102.395V27.324C102.767 26.952 103.217 26.67 103.745 26.478C104.273 26.274 104.849 26.172 105.473 26.172ZM115.938 26.172C117.438 26.172 118.59 26.532 119.394 27.252C120.198 27.96 120.6 29.034 120.6 30.474V36H117.972V34.794C117.444 35.694 116.46 36.144 115.02 36.144C114.276 36.144 113.628 36.018 113.076 35.766C112.536 35.514 112.122 35.166 111.834 34.722C111.546 34.278 111.402 33.774 111.402 33.21C111.402 32.31 111.738 31.602 112.41 31.086C113.094 30.57 114.144 30.312 115.56 30.312H117.792C117.792 29.7 117.606 29.232 117.234 28.908C116.862 28.572 116.304 28.404 115.56 28.404C115.044 28.404 114.534 28.488 114.03 28.656C113.538 28.812 113.118 29.028 112.77 29.304L111.762 27.342C112.29 26.97 112.92 26.682 113.652 26.478C114.396 26.274 115.158 26.172 115.938 26.172ZM115.722 34.254C116.202 34.254 116.628 34.146 117 33.93C117.372 33.702 117.636 33.372 117.792 32.94V31.95H115.866C114.714 31.95 114.138 32.328 114.138 33.084C114.138 33.444 114.276 33.732 114.552 33.948C114.84 34.152 115.23 34.254 115.722 34.254ZM132.578 26.316L128.492 36H125.594L121.526 26.316H124.424L127.106 32.904L129.878 26.316H132.578ZM142.946 31.194C142.946 31.23 142.928 31.482 142.892 31.95H135.566C135.698 32.55 136.01 33.024 136.502 33.372C136.994 33.72 137.606 33.894 138.338 33.894C138.842 33.894 139.286 33.822 139.67 33.678C140.066 33.522 140.432 33.282 140.768 32.958L142.262 34.578C141.35 35.622 140.018 36.144 138.266 36.144C137.174 36.144 136.208 35.934 135.368 35.514C134.528 35.082 133.88 34.488 133.424 33.732C132.968 32.976 132.74 32.118 132.74 31.158C132.74 30.21 132.962 29.358 133.406 28.602C133.862 27.834 134.48 27.24 135.26 26.82C136.052 26.388 136.934 26.172 137.906 26.172C138.854 26.172 139.712 26.376 140.48 26.784C141.248 27.192 141.848 27.78 142.28 28.548C142.724 29.304 142.946 30.186 142.946 31.194ZM137.924 28.296C137.288 28.296 136.754 28.476 136.322 28.836C135.89 29.196 135.626 29.688 135.53 30.312H140.3C140.204 29.7 139.94 29.214 139.508 28.854C139.076 28.482 138.548 28.296 137.924 28.296ZM159.669 26.316V36H157.005V34.848C156.633 35.268 156.189 35.592 155.673 35.82C155.157 36.036 154.599 36.144 153.999 36.144C152.727 36.144 151.719 35.778 150.975 35.046C150.231 34.314 149.859 33.228 149.859 31.788V26.316H152.667V31.374C152.667 32.934 153.321 33.714 154.629 33.714C155.301 33.714 155.841 33.498 156.249 33.066C156.657 32.622 156.861 31.968 156.861 31.104V26.316H159.669ZM168.157 26.172C169.357 26.172 170.323 26.532 171.055 27.252C171.799 27.972 172.171 29.04 172.171 30.456V36H169.363V30.888C169.363 30.12 169.195 29.55 168.859 29.178C168.523 28.794 168.037 28.602 167.401 28.602C166.693 28.602 166.129 28.824 165.709 29.268C165.289 29.7 165.079 30.348 165.079 31.212V36H162.271V26.316H164.953V27.45C165.325 27.042 165.787 26.73 166.339 26.514C166.891 26.286 167.497 26.172 168.157 26.172ZM178.622 26.172C180.122 26.172 181.274 26.532 182.078 27.252C182.882 27.96 183.284 29.034 183.284 30.474V36H180.656V34.794C180.128 35.694 179.144 36.144 177.704 36.144C176.96 36.144 176.312 36.018 175.76 35.766C175.22 35.514 174.806 35.166 174.518 34.722C174.23 34.278 174.086 33.774 174.086 33.21C174.086 32.31 174.422 31.602 175.094 31.086C175.778 30.57 176.828 30.312 178.244 30.312H180.476C180.476 29.7 180.29 29.232 179.918 28.908C179.546 28.572 178.988 28.404 178.244 28.404C177.728 28.404 177.218 28.488 176.714 28.656C176.222 28.812 175.802 29.028 175.454 29.304L174.446 27.342C174.974 26.97 175.604 26.682 176.336 26.478C177.08 26.274 177.842 26.172 178.622 26.172ZM178.406 34.254C178.886 34.254 179.312 34.146 179.684 33.93C180.056 33.702 180.32 33.372 180.476 32.94V31.95H178.55C177.398 31.95 176.822 32.328 176.822 33.084C176.822 33.444 176.96 33.732 177.236 33.948C177.524 34.152 177.914 34.254 178.406 34.254ZM189.083 36.144C188.279 36.144 187.493 36.048 186.725 35.856C185.957 35.652 185.345 35.4 184.889 35.1L185.825 33.084C186.257 33.36 186.779 33.588 187.391 33.768C188.003 33.936 188.603 34.02 189.191 34.02C190.379 34.02 190.973 33.726 190.973 33.138C190.973 32.862 190.811 32.664 190.487 32.544C190.163 32.424 189.665 32.322 188.993 32.238C188.201 32.118 187.547 31.98 187.031 31.824C186.515 31.668 186.065 31.392 185.681 30.996C185.309 30.6 185.123 30.036 185.123 29.304C185.123 28.692 185.297 28.152 185.645 27.684C186.005 27.204 186.521 26.832 187.193 26.568C187.877 26.304 188.681 26.172 189.605 26.172C190.289 26.172 190.967 26.25 191.639 26.406C192.323 26.55 192.887 26.754 193.331 27.018L192.395 29.016C191.543 28.536 190.613 28.296 189.605 28.296C189.005 28.296 188.555 28.38 188.255 28.548C187.955 28.716 187.805 28.932 187.805 29.196C187.805 29.496 187.967 29.706 188.291 29.826C188.615 29.946 189.131 30.06 189.839 30.168C190.631 30.3 191.279 30.444 191.783 30.6C192.287 30.744 192.725 31.014 193.097 31.41C193.469 31.806 193.655 32.358 193.655 33.066C193.655 33.666 193.475 34.2 193.115 34.668C192.755 35.136 192.227 35.502 191.531 35.766C190.847 36.018 190.031 36.144 189.083 36.144ZM201.274 26.172C202.474 26.172 203.44 26.532 204.172 27.252C204.916 27.972 205.288 29.04 205.288 30.456V36H202.48V30.888C202.48 30.12 202.312 29.55 201.976 29.178C201.64 28.794 201.154 28.602 200.518 28.602C199.81 28.602 199.246 28.824 198.826 29.268C198.406 29.7 198.196 30.348 198.196 31.212V36H195.388V26.316H198.07V27.45C198.442 27.042 198.904 26.73 199.456 26.514C200.008 26.286 200.614 26.172 201.274 26.172ZM223.209 26.316L219.699 36H216.999L214.821 29.988L212.571 36H209.871L206.379 26.316H209.025L211.311 32.868L213.687 26.316H216.063L218.367 32.868L220.725 26.316H223.209ZM233.737 31.194C233.737 31.23 233.719 31.482 233.683 31.95H226.357C226.489 32.55 226.801 33.024 227.293 33.372C227.785 33.72 228.397 33.894 229.129 33.894C229.633 33.894 230.077 33.822 230.461 33.678C230.857 33.522 231.223 33.282 231.559 32.958L233.053 34.578C232.141 35.622 230.809 36.144 229.057 36.144C227.965 36.144 226.999 35.934 226.159 35.514C225.319 35.082 224.671 34.488 224.215 33.732C223.759 32.976 223.531 32.118 223.531 31.158C223.531 30.21 223.753 29.358 224.197 28.602C224.653 27.834 225.271 27.24 226.051 26.82C226.843 26.388 227.725 26.172 228.697 26.172C229.645 26.172 230.503 26.376 231.271 26.784C232.039 27.192 232.639 27.78 233.071 28.548C233.515 29.304 233.737 30.186 233.737 31.194ZM228.715 28.296C228.079 28.296 227.545 28.476 227.113 28.836C226.681 29.196 226.417 29.688 226.321 30.312H231.091C230.995 29.7 230.731 29.214 230.299 28.854C229.867 28.482 229.339 28.296 228.715 28.296ZM238.289 27.594C238.625 27.126 239.075 26.772 239.639 26.532C240.215 26.292 240.875 26.172 241.619 26.172V28.764C241.307 28.74 241.097 28.728 240.989 28.728C240.185 28.728 239.555 28.956 239.099 29.412C238.643 29.856 238.415 30.528 238.415 31.428V36H235.607V26.316H238.289V27.594ZM252.686 31.194C252.686 31.23 252.668 31.482 252.632 31.95H245.306C245.438 32.55 245.75 33.024 246.242 33.372C246.734 33.72 247.346 33.894 248.078 33.894C248.582 33.894 249.026 33.822 249.41 33.678C249.806 33.522 250.172 33.282 250.508 32.958L252.002 34.578C251.09 35.622 249.758 36.144 248.006 36.144C246.914 36.144 245.948 35.934 245.108 35.514C244.268 35.082 243.62 34.488 243.164 33.732C242.708 32.976 242.48 32.118 242.48 31.158C242.48 30.21 242.702 29.358 243.146 28.602C243.602 27.834 244.22 27.24 245 26.82C245.792 26.388 246.674 26.172 247.646 26.172C248.594 26.172 249.452 26.376 250.22 26.784C250.988 27.192 251.588 27.78 252.02 28.548C252.464 29.304 252.686 30.186 252.686 31.194ZM247.664 28.296C247.028 28.296 246.494 28.476 246.062 28.836C245.63 29.196 245.366 29.688 245.27 30.312H250.04C249.944 29.7 249.68 29.214 249.248 28.854C248.816 28.482 248.288 28.296 247.664 28.296ZM264.42 22.644V36H261.738V34.884C261.042 35.724 260.034 36.144 258.714 36.144C257.802 36.144 256.974 35.94 256.23 35.532C255.498 35.124 254.922 34.542 254.502 33.786C254.082 33.03 253.872 32.154 253.872 31.158C253.872 30.162 254.082 29.286 254.502 28.53C254.922 27.774 255.498 27.192 256.23 26.784C256.974 26.376 257.802 26.172 258.714 26.172C259.95 26.172 260.916 26.562 261.612 27.342V22.644H264.42ZM259.2 33.84C259.908 33.84 260.496 33.6 260.964 33.12C261.432 32.628 261.666 31.974 261.666 31.158C261.666 30.342 261.432 29.694 260.964 29.214C260.496 28.722 259.908 28.476 259.2 28.476C258.48 28.476 257.886 28.722 257.418 29.214C256.95 29.694 256.716 30.342 256.716 31.158C256.716 31.974 256.95 32.628 257.418 33.12C257.886 33.6 258.48 33.84 259.2 33.84ZM281.944 26.316V39.492H279.136V34.974C278.44 35.754 277.474 36.144 276.238 36.144C275.326 36.144 274.498 35.94 273.754 35.532C273.022 35.124 272.446 34.542 272.026 33.786C271.606 33.03 271.396 32.154 271.396 31.158C271.396 30.162 271.606 29.286 272.026 28.53C272.446 27.774 273.022 27.192 273.754 26.784C274.498 26.376 275.326 26.172 276.238 26.172C277.558 26.172 278.566 26.592 279.262 27.432V26.316H281.944ZM276.724 33.84C277.432 33.84 278.02 33.6 278.488 33.12C278.956 32.628 279.19 31.974 279.19 31.158C279.19 30.342 278.956 29.694 278.488 29.214C278.02 28.722 277.432 28.476 276.724 28.476C276.004 28.476 275.41 28.722 274.942 29.214C274.474 29.694 274.24 30.342 274.24 31.158C274.24 31.974 274.474 32.628 274.942 33.12C275.41 33.6 276.004 33.84 276.724 33.84ZM294.3 26.316V36H291.636V34.848C291.264 35.268 290.82 35.592 290.304 35.82C289.788 36.036 289.23 36.144 288.63 36.144C287.358 36.144 286.35 35.778 285.606 35.046C284.862 34.314 284.49 33.228 284.49 31.788V26.316H287.298V31.374C287.298 32.934 287.952 33.714 289.26 33.714C289.932 33.714 290.472 33.498 290.88 33.066C291.288 32.622 291.492 31.968 291.492 31.104V26.316H294.3ZM306.387 31.194C306.387 31.23 306.369 31.482 306.333 31.95H299.007C299.139 32.55 299.451 33.024 299.943 33.372C300.435 33.72 301.047 33.894 301.779 33.894C302.283 33.894 302.727 33.822 303.111 33.678C303.507 33.522 303.873 33.282 304.209 32.958L305.703 34.578C304.791 35.622 303.459 36.144 301.707 36.144C300.615 36.144 299.649 35.934 298.809 35.514C297.969 35.082 297.321 34.488 296.865 33.732C296.409 32.976 296.181 32.118 296.181 31.158C296.181 30.21 296.403 29.358 296.847 28.602C297.303 27.834 297.921 27.24 298.701 26.82C299.493 26.388 300.375 26.172 301.347 26.172C302.295 26.172 303.153 26.376 303.921 26.784C304.689 27.192 305.289 27.78 305.721 28.548C306.165 29.304 306.387 30.186 306.387 31.194ZM301.365 28.296C300.729 28.296 300.195 28.476 299.763 28.836C299.331 29.196 299.067 29.688 298.971 30.312H303.741C303.645 29.7 303.381 29.214 302.949 28.854C302.517 28.482 301.989 28.296 301.365 28.296ZM311.515 36.144C310.711 36.144 309.925 36.048 309.157 35.856C308.389 35.652 307.777 35.4 307.321 35.1L308.257 33.084C308.689 33.36 309.211 33.588 309.823 33.768C310.435 33.936 311.035 34.02 311.623 34.02C312.811 34.02 313.405 33.726 313.405 33.138C313.405 32.862 313.243 32.664 312.919 32.544C312.595 32.424 312.097 32.322 311.425 32.238C310.633 32.118 309.979 31.98 309.463 31.824C308.947 31.668 308.497 31.392 308.113 30.996C307.741 30.6 307.555 30.036 307.555 29.304C307.555 28.692 307.729 28.152 308.077 27.684C308.437 27.204 308.953 26.832 309.625 26.568C310.309 26.304 311.113 26.172 312.037 26.172C312.721 26.172 313.399 26.25 314.071 26.406C314.755 26.55 315.319 26.754 315.763 27.018L314.827 29.016C313.975 28.536 313.045 28.296 312.037 28.296C311.437 28.296 310.987 28.38 310.687 28.548C310.387 28.716 310.237 28.932 310.237 29.196C310.237 29.496 310.399 29.706 310.723 29.826C311.047 29.946 311.563 30.06 312.271 30.168C313.063 30.3 313.711 30.444 314.215 30.6C314.719 30.744 315.157 31.014 315.529 31.41C315.901 31.806 316.087 32.358 316.087 33.066C316.087 33.666 315.907 34.2 315.547 34.668C315.187 35.136 314.659 35.502 313.963 35.766C313.279 36.018 312.463 36.144 311.515 36.144ZM324.065 35.532C323.789 35.736 323.447 35.892 323.039 36C322.643 36.096 322.223 36.144 321.779 36.144C320.627 36.144 319.733 35.85 319.097 35.262C318.473 34.674 318.161 33.81 318.161 32.67V28.692H316.667V26.532H318.161V24.174H320.969V26.532H323.381V28.692H320.969V32.634C320.969 33.042 321.071 33.36 321.275 33.588C321.491 33.804 321.791 33.912 322.175 33.912C322.619 33.912 322.997 33.792 323.309 33.552L324.065 35.532ZM325.642 26.316H328.45V36H325.642V26.316ZM327.046 24.966C326.53 24.966 326.11 24.816 325.786 24.516C325.462 24.216 325.3 23.844 325.3 23.4C325.3 22.956 325.462 22.584 325.786 22.284C326.11 21.984 326.53 21.834 327.046 21.834C327.562 21.834 327.982 21.978 328.306 22.266C328.63 22.554 328.792 22.914 328.792 23.346C328.792 23.814 328.63 24.204 328.306 24.516C327.982 24.816 327.562 24.966 327.046 24.966ZM335.664 36.144C334.644 36.144 333.726 35.934 332.91 35.514C332.106 35.082 331.476 34.488 331.02 33.732C330.564 32.976 330.336 32.118 330.336 31.158C330.336 30.198 330.564 29.34 331.02 28.584C331.476 27.828 332.106 27.24 332.91 26.82C333.726 26.388 334.644 26.172 335.664 26.172C336.684 26.172 337.596 26.388 338.4 26.82C339.204 27.24 339.834 27.828 340.29 28.584C340.746 29.34 340.974 30.198 340.974 31.158C340.974 32.118 340.746 32.976 340.29 33.732C339.834 34.488 339.204 35.082 338.4 35.514C337.596 35.934 336.684 36.144 335.664 36.144ZM335.664 33.84C336.384 33.84 336.972 33.6 337.428 33.12C337.896 32.628 338.13 31.974 338.13 31.158C338.13 30.342 337.896 29.694 337.428 29.214C336.972 28.722 336.384 28.476 335.664 28.476C334.944 28.476 334.35 28.722 333.882 29.214C333.414 29.694 333.18 30.342 333.18 31.158C333.18 31.974 333.414 32.628 333.882 33.12C334.35 33.6 334.944 33.84 335.664 33.84ZM348.737 26.172C349.937 26.172 350.903 26.532 351.635 27.252C352.379 27.972 352.751 29.04 352.751 30.456V36H349.943V30.888C349.943 30.12 349.775 29.55 349.439 29.178C349.103 28.794 348.617 28.602 347.981 28.602C347.273 28.602 346.709 28.824 346.289 29.268C345.869 29.7 345.659 30.348 345.659 31.212V36H342.851V26.316H345.533V27.45C345.905 27.042 346.367 26.73 346.919 26.514C347.471 26.286 348.077 26.172 348.737 26.172ZM358.554 36.144C357.75 36.144 356.964 36.048 356.196 35.856C355.428 35.652 354.816 35.4 354.36 35.1L355.296 33.084C355.728 33.36 356.25 33.588 356.862 33.768C357.474 33.936 358.074 34.02 358.662 34.02C359.85 34.02 360.444 33.726 360.444 33.138C360.444 32.862 360.282 32.664 359.958 32.544C359.634 32.424 359.136 32.322 358.464 32.238C357.672 32.118 357.018 31.98 356.502 31.824C355.986 31.668 355.536 31.392 355.152 30.996C354.78 30.6 354.594 30.036 354.594 29.304C354.594 28.692 354.768 28.152 355.116 27.684C355.476 27.204 355.992 26.832 356.664 26.568C357.348 26.304 358.152 26.172 359.076 26.172C359.76 26.172 360.438 26.25 361.11 26.406C361.794 26.55 362.358 26.754 362.802 27.018L361.866 29.016C361.014 28.536 360.084 28.296 359.076 28.296C358.476 28.296 358.026 28.38 357.726 28.548C357.426 28.716 357.276 28.932 357.276 29.196C357.276 29.496 357.438 29.706 357.762 29.826C358.086 29.946 358.602 30.06 359.31 30.168C360.102 30.3 360.75 30.444 361.254 30.6C361.758 30.744 362.196 31.014 362.568 31.41C362.94 31.806 363.126 32.358 363.126 33.066C363.126 33.666 362.946 34.2 362.586 34.668C362.226 35.136 361.698 35.502 361.002 35.766C360.318 36.018 359.502 36.144 358.554 36.144ZM367.222 31.626C367.222 31.002 367.36 30.486 367.636 30.078C367.924 29.67 368.338 29.22 368.878 28.728C369.274 28.368 369.562 28.068 369.742 27.828C369.934 27.576 370.03 27.294 370.03 26.982C370.03 26.538 369.85 26.19 369.49 25.938C369.142 25.674 368.674 25.542 368.086 25.542C367.522 25.542 367.018 25.662 366.574 25.902C366.142 26.13 365.776 26.454 365.476 26.874L363.298 25.596C363.802 24.828 364.48 24.234 365.332 23.814C366.196 23.394 367.216 23.184 368.392 23.184C369.772 23.184 370.876 23.478 371.704 24.066C372.544 24.654 372.964 25.47 372.964 26.514C372.964 27.006 372.88 27.438 372.712 27.81C372.556 28.182 372.358 28.5 372.118 28.764C371.89 29.016 371.59 29.31 371.218 29.646C370.774 30.042 370.45 30.378 370.246 30.654C370.042 30.918 369.94 31.242 369.94 31.626H367.222ZM368.59 36.144C368.098 36.144 367.684 35.988 367.348 35.676C367.024 35.352 366.862 34.962 366.862 34.506C366.862 34.05 367.024 33.672 367.348 33.372C367.672 33.06 368.086 32.904 368.59 32.904C369.094 32.904 369.508 33.06 369.832 33.372C370.156 33.672 370.318 34.05 370.318 34.506C370.318 34.962 370.15 35.352 369.814 35.676C369.49 35.988 369.082 36.144 368.59 36.144ZM389.187 29.556H391.401V34.578C390.753 35.094 389.997 35.49 389.133 35.766C388.269 36.042 387.381 36.18 386.469 36.18C385.185 36.18 384.027 35.904 382.995 35.352C381.963 34.788 381.153 34.014 380.565 33.03C379.977 32.046 379.683 30.936 379.683 29.7C379.683 28.464 379.977 27.354 380.565 26.37C381.153 25.386 381.963 24.618 382.995 24.066C384.039 23.502 385.209 23.22 386.505 23.22C387.561 23.22 388.521 23.394 389.385 23.742C390.249 24.09 390.975 24.6 391.563 25.272L390.087 26.712C389.127 25.752 387.969 25.272 386.613 25.272C385.725 25.272 384.933 25.458 384.237 25.83C383.553 26.202 383.013 26.724 382.617 27.396C382.233 28.068 382.041 28.836 382.041 29.7C382.041 30.54 382.233 31.296 382.617 31.968C383.013 32.64 383.553 33.168 384.237 33.552C384.933 33.936 385.719 34.128 386.595 34.128C387.579 34.128 388.443 33.912 389.187 33.48V29.556ZM403.307 31.248C403.307 31.404 403.295 31.626 403.271 31.914H395.729C395.861 32.622 396.203 33.186 396.755 33.606C397.319 34.014 398.015 34.218 398.843 34.218C399.899 34.218 400.769 33.87 401.453 33.174L402.659 34.56C402.227 35.076 401.681 35.466 401.021 35.73C400.361 35.994 399.617 36.126 398.789 36.126C397.733 36.126 396.803 35.916 395.999 35.496C395.195 35.076 394.571 34.494 394.127 33.75C393.695 32.994 393.479 32.142 393.479 31.194C393.479 30.258 393.689 29.418 394.109 28.674C394.541 27.918 395.135 27.33 395.891 26.91C396.647 26.49 397.499 26.28 398.447 26.28C399.383 26.28 400.217 26.49 400.949 26.91C401.693 27.318 402.269 27.9 402.677 28.656C403.097 29.4 403.307 30.264 403.307 31.248ZM398.447 28.08C397.727 28.08 397.115 28.296 396.611 28.728C396.119 29.148 395.819 29.712 395.711 30.42H401.165C401.069 29.724 400.775 29.16 400.283 28.728C399.791 28.296 399.179 28.08 398.447 28.08ZM411.246 35.478C410.982 35.694 410.658 35.856 410.274 35.964C409.902 36.072 409.506 36.126 409.086 36.126C408.03 36.126 407.214 35.85 406.638 35.298C406.062 34.746 405.774 33.942 405.774 32.886V28.26H404.19V26.46H405.774V24.264H408.024V26.46H410.598V28.26H408.024V32.832C408.024 33.3 408.138 33.66 408.366 33.912C408.594 34.152 408.924 34.272 409.356 34.272C409.86 34.272 410.28 34.14 410.616 33.876L411.246 35.478ZM418.072 26.388H420.322V36H418.072V26.388ZM419.206 24.804C418.798 24.804 418.456 24.678 418.18 24.426C417.904 24.162 417.766 23.838 417.766 23.454C417.766 23.07 417.904 22.752 418.18 22.5C418.456 22.236 418.798 22.104 419.206 22.104C419.614 22.104 419.956 22.23 420.232 22.482C420.508 22.722 420.646 23.028 420.646 23.4C420.646 23.796 420.508 24.132 420.232 24.408C419.968 24.672 419.626 24.804 419.206 24.804ZM428.729 26.28C429.941 26.28 430.913 26.634 431.645 27.342C432.377 28.05 432.743 29.1 432.743 30.492V36H430.493V30.78C430.493 29.94 430.295 29.31 429.899 28.89C429.503 28.458 428.939 28.242 428.207 28.242C427.379 28.242 426.725 28.494 426.245 28.998C425.765 29.49 425.525 30.204 425.525 31.14V36H423.275V26.388H425.417V27.63C425.789 27.186 426.257 26.85 426.821 26.622C427.385 26.394 428.021 26.28 428.729 26.28ZM446.35 35.478C446.086 35.694 445.762 35.856 445.378 35.964C445.006 36.072 444.61 36.126 444.19 36.126C443.134 36.126 442.318 35.85 441.742 35.298C441.166 34.746 440.878 33.942 440.878 32.886V28.26H439.294V26.46H440.878V24.264H443.128V26.46H445.702V28.26H443.128V32.832C443.128 33.3 443.242 33.66 443.47 33.912C443.698 34.152 444.028 34.272 444.46 34.272C444.964 34.272 445.384 34.14 445.72 33.876L446.35 35.478ZM452.204 36.126C451.232 36.126 450.356 35.916 449.576 35.496C448.796 35.076 448.184 34.494 447.74 33.75C447.308 32.994 447.092 32.142 447.092 31.194C447.092 30.246 447.308 29.4 447.74 28.656C448.184 27.912 448.796 27.33 449.576 26.91C450.356 26.49 451.232 26.28 452.204 26.28C453.188 26.28 454.07 26.49 454.85 26.91C455.63 27.33 456.236 27.912 456.668 28.656C457.112 29.4 457.334 30.246 457.334 31.194C457.334 32.142 457.112 32.994 456.668 33.75C456.236 34.494 455.63 35.076 454.85 35.496C454.07 35.916 453.188 36.126 452.204 36.126ZM452.204 34.2C453.032 34.2 453.716 33.924 454.256 33.372C454.796 32.82 455.066 32.094 455.066 31.194C455.066 30.294 454.796 29.568 454.256 29.016C453.716 28.464 453.032 28.188 452.204 28.188C451.376 28.188 450.692 28.464 450.152 29.016C449.624 29.568 449.36 30.294 449.36 31.194C449.36 32.094 449.624 32.82 450.152 33.372C450.692 33.924 451.376 34.2 452.204 34.2ZM468.792 26.388V36H466.65V34.776C466.29 35.208 465.84 35.544 465.3 35.784C464.76 36.012 464.178 36.126 463.554 36.126C462.27 36.126 461.256 35.772 460.512 35.064C459.78 34.344 459.414 33.282 459.414 31.878V26.388H461.664V31.572C461.664 32.436 461.856 33.084 462.24 33.516C462.636 33.936 463.194 34.146 463.914 34.146C464.718 34.146 465.354 33.9 465.822 33.408C466.302 32.904 466.542 32.184 466.542 31.248V26.388H468.792ZM476.148 36.126C475.152 36.126 474.258 35.916 473.466 35.496C472.674 35.076 472.056 34.494 471.612 33.75C471.168 32.994 470.946 32.142 470.946 31.194C470.946 30.246 471.168 29.4 471.612 28.656C472.056 27.912 472.668 27.33 473.448 26.91C474.24 26.49 475.14 26.28 476.148 26.28C477.096 26.28 477.924 26.472 478.632 26.856C479.352 27.24 479.892 27.792 480.252 28.512L478.524 29.52C478.248 29.076 477.9 28.746 477.48 28.53C477.072 28.302 476.622 28.188 476.13 28.188C475.29 28.188 474.594 28.464 474.042 29.016C473.49 29.556 473.214 30.282 473.214 31.194C473.214 32.106 473.484 32.838 474.024 33.39C474.576 33.93 475.278 34.2 476.13 34.2C476.622 34.2 477.072 34.092 477.48 33.876C477.9 33.648 478.248 33.312 478.524 32.868L480.252 33.876C479.88 34.596 479.334 35.154 478.614 35.55C477.906 35.934 477.084 36.126 476.148 36.126ZM487.563 26.28C488.775 26.28 489.747 26.634 490.479 27.342C491.211 28.05 491.577 29.1 491.577 30.492V36H489.327V30.78C489.327 29.94 489.129 29.31 488.733 28.89C488.337 28.458 487.773 28.242 487.041 28.242C486.213 28.242 485.559 28.494 485.079 28.998C484.599 29.49 484.359 30.204 484.359 31.14V36H482.109V22.644H484.359V27.504C484.731 27.108 485.187 26.808 485.727 26.604C486.279 26.388 486.891 26.28 487.563 26.28ZM495.151 36.126C494.743 36.126 494.395 35.988 494.107 35.712C493.819 35.424 493.675 35.064 493.675 34.632C493.675 34.188 493.813 33.828 494.089 33.552C494.377 33.276 494.731 33.138 495.151 33.138C495.571 33.138 495.919 33.276 496.195 33.552C496.483 33.828 496.627 34.188 496.627 34.632C496.627 35.064 496.483 35.424 496.195 35.712C495.907 35.988 495.559 36.126 495.151 36.126Z" fill="white" />
</svg>
