<svg width="254" height="52" viewBox="0 0 254 52" fill="none" xmlns="http://www.w3.org/2000/svg">
    <path d="M0 26C0 11.6406 11.6406 0 26 0H228C242.359 0 254 11.6406 254 26C254 40.3594 242.359 52 228 52H26C11.6406 52 0 40.3594 0 26Z" fill="white" />
    <path d="M44.476 20.31H46.33V31.452H52.486V33H44.476V20.31ZM61.5926 28.914H55.3826C55.5146 30.774 56.4386 31.704 58.1546 31.704C59.1626 31.704 60.0746 31.374 60.8906 30.714L61.4486 31.992C61.0406 32.34 60.5366 32.616 59.9366 32.82C59.3366 33.024 58.7246 33.126 58.1006 33.126C56.6966 33.126 55.5866 32.724 54.7706 31.92C53.9666 31.116 53.5646 30.006 53.5646 28.59C53.5646 27.69 53.7386 26.892 54.0866 26.196C54.4466 25.5 54.9446 24.96 55.5806 24.576C56.2286 24.192 56.9606 24 57.7766 24C58.9646 24 59.8946 24.384 60.5666 25.152C61.2506 25.92 61.5926 26.982 61.5926 28.338V28.914ZM57.8126 25.332C57.1166 25.332 56.5586 25.554 56.1386 25.998C55.7306 26.43 55.4846 27.054 55.4006 27.87H60.0266C59.9906 27.054 59.7806 26.43 59.3966 25.998C59.0246 25.554 58.4966 25.332 57.8126 25.332ZM67.666 31.722C67.942 31.722 68.212 31.704 68.476 31.668L68.386 33.054C68.086 33.102 67.774 33.126 67.45 33.126C66.31 33.126 65.458 32.85 64.894 32.298C64.342 31.734 64.066 30.924 64.066 29.868V25.62H62.356V24.216H64.066V21.57H65.884V24.216H68.296V25.62H65.884V29.796C65.884 31.08 66.478 31.722 67.666 31.722ZM71.7802 20.31V21.768C71.7802 22.332 71.6842 22.842 71.4922 23.298C71.3122 23.754 71.0002 24.21 70.5562 24.666L69.7642 24.036C70.2682 23.496 70.5562 22.968 70.6282 22.452H69.6382V20.31H71.7802ZM76.7115 33.126C75.1875 33.126 73.9695 32.754 73.0575 32.01L73.6155 30.696C74.5155 31.392 75.5655 31.74 76.7655 31.74C77.3535 31.74 77.8035 31.644 78.1155 31.452C78.4275 31.248 78.5835 30.966 78.5835 30.606C78.5835 30.294 78.4755 30.048 78.2595 29.868C78.0555 29.688 77.6955 29.538 77.1795 29.418L75.7215 29.094C74.9415 28.914 74.3535 28.62 73.9575 28.212C73.5615 27.804 73.3635 27.288 73.3635 26.664C73.3635 25.872 73.6815 25.23 74.3175 24.738C74.9655 24.246 75.8115 24 76.8555 24C77.4795 24 78.0735 24.102 78.6375 24.306C79.2015 24.498 79.6875 24.774 80.0955 25.134L79.5375 26.412C78.6735 25.728 77.7795 25.386 76.8555 25.386C76.3035 25.386 75.8655 25.494 75.5415 25.71C75.2295 25.926 75.0735 26.22 75.0735 26.592C75.0735 26.892 75.1695 27.138 75.3615 27.33C75.5655 27.51 75.8835 27.648 76.3155 27.744L77.8095 28.086C78.6615 28.278 79.2855 28.578 79.6815 28.986C80.0775 29.382 80.2755 29.904 80.2755 30.552C80.2755 31.344 79.9515 31.974 79.3035 32.442C78.6675 32.898 77.8035 33.126 76.7115 33.126ZM97.1252 24C99.0932 24 100.077 25.182 100.077 27.546V33H98.2592V27.618C98.2592 26.874 98.1272 26.334 97.8632 25.998C97.6112 25.65 97.1972 25.476 96.6212 25.476C95.9612 25.476 95.4392 25.704 95.0552 26.16C94.6712 26.616 94.4792 27.24 94.4792 28.032V33H92.6612V27.618C92.6612 26.874 92.5292 26.334 92.2652 25.998C92.0012 25.65 91.5872 25.476 91.0232 25.476C90.3512 25.476 89.8232 25.704 89.4392 26.16C89.0552 26.616 88.8632 27.24 88.8632 28.032V33H87.0452V24.216H88.8272V25.548C89.1032 25.056 89.4752 24.678 89.9432 24.414C90.4112 24.138 90.9452 24 91.5452 24C92.9012 24 93.7832 24.564 94.1912 25.692C94.4672 25.164 94.8632 24.75 95.3792 24.45C95.8952 24.15 96.4772 24 97.1252 24ZM106.239 24C107.415 24 108.285 24.294 108.849 24.882C109.425 25.47 109.713 26.364 109.713 27.564V33H107.967V31.542C107.739 32.058 107.397 32.454 106.941 32.73C106.497 32.994 105.975 33.126 105.375 33.126C104.799 33.126 104.271 33.012 103.791 32.784C103.311 32.544 102.933 32.214 102.657 31.794C102.393 31.374 102.261 30.906 102.261 30.39C102.261 29.754 102.423 29.256 102.747 28.896C103.083 28.524 103.629 28.26 104.385 28.104C105.153 27.948 106.203 27.87 107.535 27.87H107.949V27.348C107.949 26.676 107.805 26.19 107.517 25.89C107.241 25.59 106.785 25.44 106.149 25.44C105.153 25.44 104.157 25.746 103.161 26.358L102.621 25.08C103.089 24.756 103.653 24.498 104.313 24.306C104.985 24.102 105.627 24 106.239 24ZM105.699 31.776C106.359 31.776 106.899 31.554 107.319 31.11C107.739 30.654 107.949 30.072 107.949 29.364V28.896H107.625C106.689 28.896 105.969 28.938 105.465 29.022C104.961 29.106 104.601 29.25 104.385 29.454C104.169 29.646 104.061 29.928 104.061 30.3C104.061 30.72 104.211 31.074 104.511 31.362C104.823 31.638 105.219 31.776 105.699 31.776ZM118.175 33L114.017 28.86V33H112.199V20.31H114.017V28.176L117.869 24.234H120.119L115.961 28.446L120.479 33H118.175ZM128.882 28.914H122.672C122.804 30.774 123.728 31.704 125.444 31.704C126.452 31.704 127.364 31.374 128.18 30.714L128.738 31.992C128.33 32.34 127.826 32.616 127.226 32.82C126.626 33.024 126.014 33.126 125.39 33.126C123.986 33.126 122.876 32.724 122.06 31.92C121.256 31.116 120.854 30.006 120.854 28.59C120.854 27.69 121.028 26.892 121.376 26.196C121.736 25.5 122.234 24.96 122.87 24.576C123.518 24.192 124.25 24 125.066 24C126.254 24 127.184 24.384 127.856 25.152C128.54 25.92 128.882 26.982 128.882 28.338V28.914ZM125.102 25.332C124.406 25.332 123.848 25.554 123.428 25.998C123.02 26.43 122.774 27.054 122.69 27.87H127.316C127.28 27.054 127.07 26.43 126.686 25.998C126.314 25.554 125.786 25.332 125.102 25.332ZM135.631 24.216H137.449V33H135.631V24.216ZM137.593 20.292V22.182H135.505V20.292H137.593ZM144.148 31.722C144.424 31.722 144.694 31.704 144.958 31.668L144.868 33.054C144.568 33.102 144.256 33.126 143.932 33.126C142.792 33.126 141.94 32.85 141.376 32.298C140.824 31.734 140.548 30.924 140.548 29.868V25.62H138.838V24.216H140.548V21.57H142.366V24.216H144.778V25.62H142.366V29.796C142.366 31.08 142.96 31.722 144.148 31.722ZM155.816 24C157.916 24 158.966 25.182 158.966 27.546V33H157.148V27.636C157.148 26.892 156.998 26.346 156.698 25.998C156.41 25.65 155.954 25.476 155.33 25.476C154.598 25.476 154.01 25.704 153.566 26.16C153.122 26.616 152.9 27.228 152.9 27.996V33H151.082V20.31H152.9V25.548C153.2 25.044 153.602 24.66 154.106 24.396C154.61 24.132 155.18 24 155.816 24ZM165.125 24C166.301 24 167.171 24.294 167.735 24.882C168.311 25.47 168.599 26.364 168.599 27.564V33H166.853V31.542C166.625 32.058 166.283 32.454 165.827 32.73C165.383 32.994 164.861 33.126 164.261 33.126C163.685 33.126 163.157 33.012 162.677 32.784C162.197 32.544 161.819 32.214 161.543 31.794C161.279 31.374 161.147 30.906 161.147 30.39C161.147 29.754 161.309 29.256 161.633 28.896C161.969 28.524 162.515 28.26 163.271 28.104C164.039 27.948 165.089 27.87 166.421 27.87H166.835V27.348C166.835 26.676 166.691 26.19 166.403 25.89C166.127 25.59 165.671 25.44 165.035 25.44C164.039 25.44 163.043 25.746 162.047 26.358L161.507 25.08C161.975 24.756 162.539 24.498 163.199 24.306C163.871 24.102 164.513 24 165.125 24ZM164.585 31.776C165.245 31.776 165.785 31.554 166.205 31.11C166.625 30.654 166.835 30.072 166.835 29.364V28.896H166.511C165.575 28.896 164.855 28.938 164.351 29.022C163.847 29.106 163.487 29.25 163.271 29.454C163.055 29.646 162.947 29.928 162.947 30.3C162.947 30.72 163.097 31.074 163.397 31.362C163.709 31.638 164.105 31.776 164.585 31.776ZM175.802 24C176.558 24 177.23 24.192 177.818 24.576C178.418 24.96 178.88 25.5 179.204 26.196C179.54 26.892 179.708 27.696 179.708 28.608C179.708 29.508 179.546 30.3 179.222 30.984C178.898 31.668 178.436 32.196 177.836 32.568C177.248 32.94 176.57 33.126 175.802 33.126C175.142 33.126 174.56 32.988 174.056 32.712C173.552 32.424 173.168 32.016 172.904 31.488V36.24H171.086V24.216H172.904V25.656C173.168 25.128 173.552 24.72 174.056 24.432C174.56 24.144 175.142 24 175.802 24ZM175.37 31.686C176.162 31.686 176.774 31.422 177.206 30.894C177.638 30.354 177.854 29.592 177.854 28.608C177.854 27.612 177.632 26.838 177.188 26.286C176.756 25.734 176.15 25.458 175.37 25.458C174.578 25.458 173.966 25.728 173.534 26.268C173.114 26.808 172.904 27.576 172.904 28.572C172.904 29.568 173.114 30.336 173.534 30.876C173.966 31.416 174.578 31.686 175.37 31.686ZM186.437 24C187.193 24 187.865 24.192 188.453 24.576C189.053 24.96 189.515 25.5 189.839 26.196C190.175 26.892 190.343 27.696 190.343 28.608C190.343 29.508 190.181 30.3 189.857 30.984C189.533 31.668 189.071 32.196 188.471 32.568C187.883 32.94 187.205 33.126 186.437 33.126C185.777 33.126 185.195 32.988 184.691 32.712C184.187 32.424 183.803 32.016 183.539 31.488V36.24H181.721V24.216H183.539V25.656C183.803 25.128 184.187 24.72 184.691 24.432C185.195 24.144 185.777 24 186.437 24ZM186.005 31.686C186.797 31.686 187.409 31.422 187.841 30.894C188.273 30.354 188.489 29.592 188.489 28.608C188.489 27.612 188.267 26.838 187.823 26.286C187.391 25.734 186.785 25.458 186.005 25.458C185.213 25.458 184.601 25.728 184.169 26.268C183.749 26.808 183.539 27.576 183.539 28.572C183.539 29.568 183.749 30.336 184.169 30.876C184.601 31.416 185.213 31.686 186.005 31.686ZM199.88 28.914H193.67C193.802 30.774 194.726 31.704 196.442 31.704C197.45 31.704 198.362 31.374 199.178 30.714L199.736 31.992C199.328 32.34 198.824 32.616 198.224 32.82C197.624 33.024 197.012 33.126 196.388 33.126C194.984 33.126 193.874 32.724 193.058 31.92C192.254 31.116 191.852 30.006 191.852 28.59C191.852 27.69 192.026 26.892 192.374 26.196C192.734 25.5 193.232 24.96 193.868 24.576C194.516 24.192 195.248 24 196.064 24C197.252 24 198.182 24.384 198.854 25.152C199.538 25.92 199.88 26.982 199.88 28.338V28.914ZM196.1 25.332C195.404 25.332 194.846 25.554 194.426 25.998C194.018 26.43 193.772 27.054 193.688 27.87H198.314C198.278 27.054 198.068 26.43 197.684 25.998C197.312 25.554 196.784 25.332 196.1 25.332ZM206.617 24C208.717 24 209.767 25.182 209.767 27.546V33H207.949V27.636C207.949 26.892 207.799 26.346 207.499 25.998C207.211 25.65 206.755 25.476 206.131 25.476C205.399 25.476 204.811 25.704 204.367 26.16C203.923 26.616 203.701 27.228 203.701 27.996V33H201.883V24.216H203.665V25.62C203.953 25.092 204.355 24.69 204.871 24.414C205.387 24.138 205.969 24 206.617 24Z" fill="#2B8CFF" />
</svg>
    