<svg width="185" height="30" viewBox="0 0 185 30" fill="none" xmlns="http://www.w3.org/2000/svg">
    <path d="M18.7716 19.3665C17.9946 20.3718 16.8875 21.1691 15.5825 21.6629C14.0016 22.2597 12.2794 22.5496 10.5452 22.5109C7.93093 22.6007 5.35332 21.9735 3.20586 20.7249C2.25422 20.1325 1.4771 19.3665 0.933766 18.4851C0.390437 17.6037 0.0952574 16.6303 0.0707212 15.6391H7.64581C7.65421 16.2634 7.95303 16.8605 8.47903 17.3041C8.96572 17.6685 9.60098 17.8636 10.2544 17.8491C10.7854 17.8761 11.3093 17.7355 11.722 17.4551C11.9025 17.3119 12.0433 17.1374 12.1347 16.944C12.226 16.7505 12.2656 16.5427 12.2507 16.3351C12.2586 16.0282 12.1646 15.7254 11.9791 15.4604C11.7935 15.1953 11.5238 14.9784 11.1997 14.8336C10.1387 14.3514 9.02159 13.9607 7.86575 13.6677C6.49554 13.289 5.1574 12.8337 3.86038 12.3049C2.77246 11.8343 1.83908 11.1484 1.14185 10.3069C0.380117 9.27356 -0.0156215 8.08107 0.000472017 6.86759C0.0165655 5.6541 0.443831 4.46926 1.23279 3.45023C2.08592 2.47104 3.25512 1.71494 4.60371 1.27034C6.14798 0.757405 7.79864 0.505238 9.46028 0.528413C11.9793 0.418549 14.4673 1.03297 16.5099 2.26932C17.3862 2.86062 18.0979 3.60422 18.5955 4.44848C19.0931 5.29273 19.3646 6.21738 19.3912 7.15813H11.7442C11.7081 6.60758 11.4469 6.08405 11.0041 5.67513C10.793 5.51086 10.5449 5.38337 10.2742 5.30011C10.0035 5.21685 9.71569 5.17952 9.42751 5.19024C8.95272 5.16679 8.48538 5.29712 8.12269 5.55413C7.95651 5.69772 7.82867 5.8691 7.74757 6.05698C7.66646 6.24485 7.63394 6.44495 7.65216 6.64408C7.65018 6.93783 7.74566 7.22629 7.92801 7.47747C8.11037 7.72864 8.37246 7.93269 8.68522 8.067C9.72044 8.53496 10.8067 8.91943 11.9293 9.21522C13.3053 9.61381 14.6477 10.0892 15.9473 10.6382C17.0405 11.1274 17.9818 11.823 18.6965 12.6696C19.5162 13.6864 19.9238 14.8959 19.8597 16.1205C19.8769 17.2673 19.4992 18.394 18.7716 19.3665Z" fill="white" />
    <path d="M55.1848 1.94473C57.1567 2.86532 58.7869 4.22186 59.8965 5.8655C61.029 7.60299 61.6208 9.55031 61.6177 11.5287C61.6146 13.507 61.0165 15.453 59.8785 17.188C58.7586 18.8301 57.1232 20.1858 55.1488 21.1087C53.1293 22.0323 50.8641 22.5163 48.5618 22.5163C46.2595 22.5163 43.9943 22.0323 41.9748 21.1087C39.9925 20.1895 38.3502 18.8333 37.2272 17.188C36.0859 15.4533 35.4874 13.5061 35.4874 11.5267C35.4874 9.5474 36.0859 7.60011 37.2272 5.8655C38.3502 4.22015 39.9924 2.86394 41.9748 1.94473C44.0007 1.02091 46.2717 0.536804 48.5798 0.536804C50.8878 0.536804 53.1589 1.02091 55.1848 1.94473ZM44.2937 7.51454C43.2808 8.67238 42.7348 10.0693 42.7348 11.5033C42.7348 12.9374 43.2808 14.3343 44.2937 15.4921C44.8509 15.9621 45.5141 16.3351 46.245 16.5897C46.9759 16.8443 47.7599 16.9754 48.5518 16.9754C49.3436 16.9754 50.1276 16.8443 50.8585 16.5897C51.5894 16.3351 52.2526 15.9621 52.8099 15.4921C53.901 14.3777 54.4566 12.964 54.3685 11.5263C54.466 10.076 53.9172 8.64684 52.8278 7.51454C52.293 7.02119 51.6334 6.6335 50.8969 6.37958C50.1604 6.12567 49.3654 6.01192 48.5698 6.04658C47.7715 6.0129 46.9743 6.12704 46.235 6.38082C45.4958 6.6346 44.8329 7.02173 44.2937 7.51454Z" fill="white" />
    <path d="M40.7694 4.10236C40.1905 4.54289 39.6691 5.0335 39.214 5.56594H40.7694V4.10236Z" fill="white" />
    <path d="M36.3052 17.68C36.2618 17.6181 36.2258 17.5537 36.1846 17.4909H27.8588V13.6161H34.5975C34.3065 12.1214 34.3197 10.5963 34.6366 9.10531H27.8588V5.56345H36.1064C36.173 5.46011 36.2343 5.35501 36.3041 5.25344C37.5576 3.64621 39.2347 2.29992 41.2072 1.31766V0.810669H20.7182V22.2437H41.2083V21.8339C39.2247 20.7707 37.5498 19.3517 36.3052 17.68Z" fill="white" />
    <path d="M40.7673 18.8321V17.4896H39.3166C39.7465 17.9756 40.2324 18.4252 40.7673 18.8321Z" fill="white" />
    <path d="M78.1448 17.4492H67.8268L65.9574 21.8743H61.7278L70.7304 1.77319H75.2666L84.2342 21.8743H80.01L78.1448 17.4492ZM77.0366 14.9046L72.9816 5.3601L68.9307 14.9046H77.0366Z" fill="white" />
    <path d="M97.3617 6.806C98.5647 7.49735 99.474 8.48976 99.9586 9.64035V5.93865H103.906V22.0483C103.938 23.4193 103.563 24.7757 102.816 25.9965C102.104 27.1303 101.016 28.0689 99.6826 28.7001C98.1996 29.3813 96.5264 29.7208 94.8345 29.684C92.5184 29.7758 90.2324 29.216 88.3422 28.0942C86.6939 27.0368 85.5865 25.497 85.243 23.7848H89.1553C89.4419 24.6841 90.1053 25.4676 91.0248 25.9929C92.077 26.5534 93.3096 26.8309 94.5565 26.7878C95.2667 26.8088 95.9749 26.7123 96.6403 26.5039C97.3057 26.2955 97.9153 25.9792 98.4339 25.5734C98.9679 25.1053 99.3792 24.5493 99.6415 23.941C99.9039 23.3327 100.012 22.6854 99.9576 22.0404V18.1646C99.4731 19.3153 98.5638 20.3078 97.3606 20.999C96.0532 21.7337 94.5032 22.108 92.9281 22.0695C91.365 22.0915 89.8252 21.7512 88.4797 21.0865C87.1505 20.4097 86.0852 19.425 85.4132 18.2521C84.6828 16.8821 84.3053 15.3991 84.3053 13.8994C84.3053 12.3997 84.6828 10.9167 85.4132 9.54674C86.0854 8.37395 87.1507 7.38932 88.4797 6.71236C89.8252 6.04761 91.365 5.70736 92.9281 5.72932C94.5043 5.6926 96.0547 6.06911 97.3617 6.806ZM89.9346 10.0308C88.9134 11.1371 88.3595 12.4948 88.3595 13.8919C88.3595 15.289 88.9134 16.6467 89.9346 17.753C90.476 18.2232 91.1313 18.5915 91.8566 18.8334C92.582 19.0753 93.3607 19.1851 94.1409 19.1557C95.1859 19.1694 96.2155 18.9443 97.1185 18.5047C98.0017 18.0652 98.7211 17.4291 99.1963 16.6675C99.6975 15.8043 99.9578 14.8574 99.9578 13.8981C99.9578 12.9387 99.6975 11.9918 99.1963 11.1286C98.7253 10.36 98.0054 9.71735 97.1185 9.27382C96.2154 8.83453 95.1858 8.60972 94.1409 8.62372C93.3604 8.59516 92.5815 8.70589 91.8562 8.9485C91.1309 9.19112 90.4758 9.56007 89.9346 10.0308Z" fill="white" />
    <path d="M124.332 14.5574H109.652C109.618 15.2248 109.745 15.891 110.025 16.5169C110.304 17.1427 110.731 17.7155 111.279 18.2017C112.302 18.9954 113.658 19.4214 115.054 19.3879C116.247 19.4187 117.42 19.1241 118.395 18.5488C119.284 18.0198 119.887 17.2194 120.074 16.3212H124.304C124.069 17.4193 123.513 18.4518 122.686 19.3272C121.858 20.2026 120.785 20.8936 119.56 21.339C118.198 21.8428 116.722 22.0944 115.233 22.0766C113.526 22.105 111.839 21.7665 110.334 21.0935C108.915 20.4389 107.754 19.4542 106.992 18.2591C106.195 16.9047 105.781 15.4156 105.781 13.9064C105.781 12.3973 106.195 10.9082 106.992 9.55376C107.754 8.35875 108.915 7.37412 110.334 6.71938C111.851 6.07538 113.529 5.73855 115.231 5.7361C116.933 5.73364 118.612 6.06563 120.132 6.70526C121.488 7.31722 122.605 8.24032 123.353 9.36562C124.353 10.9595 124.7 12.7833 124.34 14.5574H124.332ZM119.849 10.4352C119.411 9.76036 118.734 9.215 117.911 8.87366C117.075 8.53345 116.157 8.36018 115.227 8.36756C113.8 8.33095 112.411 8.75587 111.35 9.55376C110.802 10.0128 110.37 10.5591 110.079 11.1602C109.789 11.7613 109.645 12.405 109.658 13.0532H120.495C120.574 12.1474 120.351 11.2411 119.849 10.4352Z" fill="white" />
    <path d="M142.372 7.47105C143.809 8.89782 144.529 10.7337 144.381 12.5939V21.8787H140.435V12.9375C140.527 11.733 140.055 10.5457 139.119 9.62619C138.652 9.22896 138.09 8.91912 137.469 8.7172C136.849 8.51528 136.184 8.4259 135.518 8.45501C134.818 8.42916 134.12 8.52793 133.469 8.74477C132.818 8.96162 132.23 9.29159 131.744 9.71277C130.718 10.7427 130.21 12.0642 130.325 13.4004V21.8743H126.376V5.93773H130.323V9.43719C130.78 8.29632 131.684 7.31758 132.89 6.65936C134.127 5.99483 135.573 5.65264 137.044 5.67629C138.034 5.64125 139.022 5.78325 139.94 6.09277C140.859 6.4023 141.688 6.8722 142.372 7.47105Z" fill="white" />
    <path d="M161.692 7.37301C163.324 8.4867 164.399 10.0702 164.704 11.8123H160.515C160.332 10.8773 159.732 10.035 158.836 9.45484C157.868 8.86536 156.691 8.56484 155.495 8.60161C154.782 8.58765 154.074 8.70038 153.418 8.93229C152.762 9.16421 152.172 9.51003 151.688 9.94682C150.697 11.0996 150.164 12.483 150.164 13.902C150.164 15.3211 150.697 16.7044 151.688 17.8572C152.169 18.2978 152.758 18.647 153.415 18.8815C154.072 19.116 154.781 19.2302 155.495 19.2166C156.694 19.2534 157.873 18.9471 158.836 18.3483C159.731 17.7613 160.33 16.915 160.515 15.9768H164.704C164.396 17.7223 163.323 19.3098 161.692 20.431C159.944 21.5673 157.772 22.151 155.559 22.0792C153.852 22.1076 152.165 21.7691 150.66 21.0961C149.241 20.4416 148.081 19.4569 147.319 18.2618C146.522 16.9074 146.107 15.4183 146.107 13.9091C146.107 12.3999 146.522 10.9108 147.319 9.5564C148.081 8.36133 149.241 7.37671 150.66 6.72205C152.165 6.04921 153.852 5.7107 155.559 5.73899C157.769 5.66726 159.94 6.24551 161.692 7.37301Z" fill="white" />
    <path d="M168.859 5.94116L174.569 17.6549L179.866 5.94116H184.264L172.738 29.4552H168.34L172.463 21.5059L164.427 5.94558L168.859 5.94116Z" fill="white" />
</svg>
