<svg width="833" height="76" viewBox="0 0 833 76" fill="none" xmlns="http://www.w3.org/2000/svg">
    <path d="M239.818 75.096C238.69 75.096 237.834 74.804 237.25 74.22C236.666 73.636 236.374 72.776 236.374 71.64V66.54H237.598V71.724C237.598 72.5 237.782 73.088 238.15 73.488C238.526 73.888 239.082 74.088 239.818 74.088C240.546 74.088 241.098 73.888 241.474 73.488C241.85 73.088 242.038 72.5 242.038 71.724V66.54H243.262V71.64C243.262 72.768 242.966 73.628 242.374 74.22C241.79 74.804 240.938 75.096 239.818 75.096ZM252.473 66.54V75H251.525L246.689 68.616V75H245.525V66.54H246.461L251.309 72.936V66.54H252.473ZM258.523 75.096C257.707 75.096 256.995 74.92 256.387 74.568C255.787 74.216 255.323 73.716 254.995 73.068C254.675 72.412 254.515 71.644 254.515 70.764C254.515 69.884 254.675 69.12 254.995 68.472C255.323 67.816 255.787 67.316 256.387 66.972C256.995 66.62 257.707 66.444 258.523 66.444C259.099 66.444 259.635 66.536 260.131 66.72C260.627 66.896 261.047 67.152 261.391 67.488L260.959 68.4C260.567 68.072 260.175 67.836 259.783 67.692C259.399 67.548 258.983 67.476 258.535 67.476C257.655 67.476 256.975 67.76 256.495 68.328C256.023 68.896 255.787 69.708 255.787 70.764C255.787 71.82 256.023 72.636 256.495 73.212C256.975 73.78 257.655 74.064 258.535 74.064C258.983 74.064 259.399 73.992 259.783 73.848C260.175 73.704 260.567 73.468 260.959 73.14L261.391 74.052C261.047 74.388 260.627 74.648 260.131 74.832C259.635 75.008 259.099 75.096 258.523 75.096ZM266.779 75.096C265.979 75.096 265.283 74.92 264.691 74.568C264.107 74.216 263.655 73.716 263.335 73.068C263.015 72.42 262.855 71.656 262.855 70.776C262.855 69.888 263.011 69.12 263.323 68.472C263.643 67.816 264.099 67.316 264.691 66.972C265.283 66.62 265.979 66.444 266.779 66.444C267.587 66.444 268.287 66.62 268.879 66.972C269.471 67.316 269.923 67.816 270.235 68.472C270.555 69.12 270.715 69.884 270.715 70.764C270.715 71.644 270.555 72.412 270.235 73.068C269.923 73.716 269.471 74.216 268.879 74.568C268.287 74.92 267.587 75.096 266.779 75.096ZM266.779 74.088C267.627 74.088 268.287 73.8 268.759 73.224C269.231 72.648 269.467 71.828 269.467 70.764C269.467 69.7 269.231 68.884 268.759 68.316C268.295 67.74 267.635 67.452 266.779 67.452C265.939 67.452 265.283 67.74 264.811 68.316C264.347 68.884 264.115 69.7 264.115 70.764C264.115 71.828 264.347 72.648 264.811 73.224C265.283 73.8 265.939 74.088 266.779 74.088ZM280.038 66.54L276.306 75H275.262L271.542 66.54H272.826L275.802 73.44L278.778 66.54H280.038ZM281.336 66.54H286.832V67.536H282.548V70.2H286.592V71.208H282.548V74.004H286.832V75H281.336V66.54ZM295.58 75H294.212L292.772 72.288C292.612 72 292.42 71.8 292.196 71.688C291.98 71.568 291.692 71.508 291.332 71.508H289.94V75H288.716V66.54H292.316C293.252 66.54 293.964 66.748 294.452 67.164C294.948 67.58 295.196 68.188 295.196 68.988C295.196 69.636 295.012 70.168 294.644 70.584C294.284 71 293.768 71.264 293.096 71.376C293.512 71.504 293.856 71.816 294.128 72.312L295.58 75ZM292.172 70.512C292.796 70.512 293.256 70.392 293.552 70.152C293.856 69.904 294.008 69.524 294.008 69.012C294.008 68.5 293.86 68.128 293.564 67.896C293.268 67.656 292.804 67.536 292.172 67.536H289.928V70.512H292.172ZM302.901 67.572H300.045V66.54H307.017V67.572H304.149V75H302.901V67.572ZM315.686 66.54V75H314.462V71.208H309.734V75H308.51V66.54H309.734V70.2H314.462V66.54H315.686ZM318.011 66.54H323.507V67.536H319.223V70.2H323.267V71.208H319.223V74.004H323.507V75H318.011V66.54ZM331.687 75.096C331.031 75.096 330.427 75.008 329.875 74.832C329.331 74.656 328.863 74.396 328.471 74.052L328.915 73.14C329.331 73.476 329.759 73.72 330.199 73.872C330.647 74.016 331.147 74.088 331.699 74.088C332.331 74.088 332.819 73.972 333.163 73.74C333.507 73.5 333.679 73.164 333.679 72.732C333.679 72.364 333.519 72.092 333.199 71.916C332.879 71.732 332.367 71.56 331.663 71.4C330.991 71.256 330.439 71.092 330.007 70.908C329.575 70.724 329.235 70.476 328.987 70.164C328.747 69.844 328.627 69.44 328.627 68.952C328.627 68.456 328.755 68.02 329.011 67.644C329.275 67.268 329.647 66.976 330.127 66.768C330.607 66.552 331.163 66.444 331.795 66.444C332.387 66.444 332.943 66.536 333.463 66.72C333.991 66.896 334.423 67.152 334.759 67.488L334.327 68.4C333.935 68.08 333.531 67.844 333.115 67.692C332.707 67.532 332.271 67.452 331.807 67.452C331.199 67.452 330.719 67.58 330.367 67.836C330.023 68.084 329.851 68.432 329.851 68.88C329.851 69.264 330.003 69.556 330.307 69.756C330.611 69.948 331.099 70.124 331.771 70.284C332.475 70.444 333.043 70.612 333.475 70.788C333.915 70.956 334.263 71.192 334.519 71.496C334.783 71.792 334.915 72.18 334.915 72.66C334.915 73.148 334.783 73.576 334.519 73.944C334.263 74.312 333.891 74.596 333.403 74.796C332.923 74.996 332.351 75.096 331.687 75.096ZM336.798 66.54H342.294V67.536H338.01V70.2H342.054V71.208H338.01V74.004H342.294V75H336.798V66.54ZM347.862 75.096C347.046 75.096 346.334 74.92 345.726 74.568C345.126 74.216 344.662 73.716 344.334 73.068C344.014 72.412 343.854 71.644 343.854 70.764C343.854 69.884 344.014 69.12 344.334 68.472C344.662 67.816 345.126 67.316 345.726 66.972C346.334 66.62 347.046 66.444 347.862 66.444C348.438 66.444 348.974 66.536 349.47 66.72C349.966 66.896 350.386 67.152 350.73 67.488L350.298 68.4C349.906 68.072 349.514 67.836 349.122 67.692C348.738 67.548 348.322 67.476 347.874 67.476C346.994 67.476 346.314 67.76 345.834 68.328C345.362 68.896 345.126 69.708 345.126 70.764C345.126 71.82 345.362 72.636 345.834 73.212C346.314 73.78 346.994 74.064 347.874 74.064C348.322 74.064 348.738 73.992 349.122 73.848C349.514 73.704 349.906 73.468 350.298 73.14L350.73 74.052C350.386 74.388 349.966 74.648 349.47 74.832C348.974 75.008 348.438 75.096 347.862 75.096ZM359.488 75H358.12L356.68 72.288C356.52 72 356.328 71.8 356.104 71.688C355.888 71.568 355.6 71.508 355.24 71.508H353.848V75H352.624V66.54H356.224C357.16 66.54 357.872 66.748 358.36 67.164C358.856 67.58 359.104 68.188 359.104 68.988C359.104 69.636 358.92 70.168 358.552 70.584C358.192 71 357.676 71.264 357.004 71.376C357.42 71.504 357.764 71.816 358.036 72.312L359.488 75ZM356.08 70.512C356.704 70.512 357.164 70.392 357.46 70.152C357.764 69.904 357.916 69.524 357.916 69.012C357.916 68.5 357.768 68.128 357.472 67.896C357.176 67.656 356.712 67.536 356.08 67.536H353.836V70.512H356.08ZM361.269 66.54H366.765V67.536H362.481V70.2H366.525V71.208H362.481V74.004H366.765V75H361.269V66.54ZM370.594 67.572H367.738V66.54H374.71V67.572H371.842V75H370.594V67.572ZM378.694 75.096C378.038 75.096 377.434 75.008 376.882 74.832C376.338 74.656 375.87 74.396 375.478 74.052L375.922 73.14C376.338 73.476 376.766 73.72 377.206 73.872C377.654 74.016 378.154 74.088 378.706 74.088C379.338 74.088 379.826 73.972 380.17 73.74C380.514 73.5 380.686 73.164 380.686 72.732C380.686 72.364 380.526 72.092 380.206 71.916C379.886 71.732 379.374 71.56 378.67 71.4C377.998 71.256 377.446 71.092 377.014 70.908C376.582 70.724 376.242 70.476 375.994 70.164C375.754 69.844 375.634 69.44 375.634 68.952C375.634 68.456 375.762 68.02 376.018 67.644C376.282 67.268 376.654 66.976 377.134 66.768C377.614 66.552 378.17 66.444 378.802 66.444C379.394 66.444 379.95 66.536 380.47 66.72C380.998 66.896 381.43 67.152 381.766 67.488L381.334 68.4C380.942 68.08 380.538 67.844 380.122 67.692C379.714 67.532 379.278 67.452 378.814 67.452C378.206 67.452 377.726 67.58 377.374 67.836C377.03 68.084 376.858 68.432 376.858 68.88C376.858 69.264 377.01 69.556 377.314 69.756C377.618 69.948 378.106 70.124 378.778 70.284C379.482 70.444 380.05 70.612 380.482 70.788C380.922 70.956 381.27 71.192 381.526 71.496C381.79 71.792 381.922 72.18 381.922 72.66C381.922 73.148 381.79 73.576 381.526 73.944C381.27 74.312 380.898 74.596 380.41 74.796C379.93 74.996 379.358 75.096 378.694 75.096ZM389.346 67.572H386.49V66.54H393.462V67.572H390.594V75H389.346V67.572ZM398.076 75.096C397.276 75.096 396.58 74.92 395.988 74.568C395.404 74.216 394.952 73.716 394.632 73.068C394.312 72.42 394.152 71.656 394.152 70.776C394.152 69.888 394.308 69.12 394.62 68.472C394.94 67.816 395.396 67.316 395.988 66.972C396.58 66.62 397.276 66.444 398.076 66.444C398.884 66.444 399.584 66.62 400.176 66.972C400.768 67.316 401.22 67.816 401.532 68.472C401.852 69.12 402.012 69.884 402.012 70.764C402.012 71.644 401.852 72.412 401.532 73.068C401.22 73.716 400.768 74.216 400.176 74.568C399.584 74.92 398.884 75.096 398.076 75.096ZM398.076 74.088C398.924 74.088 399.584 73.8 400.056 73.224C400.528 72.648 400.764 71.828 400.764 70.764C400.764 69.7 400.528 68.884 400.056 68.316C399.592 67.74 398.932 67.452 398.076 67.452C397.236 67.452 396.58 67.74 396.108 68.316C395.644 68.884 395.412 69.7 395.412 70.764C395.412 71.828 395.644 72.648 396.108 73.224C396.58 73.8 397.236 74.088 398.076 74.088ZM411.218 75.096C410.418 75.096 409.722 74.92 409.13 74.568C408.546 74.216 408.094 73.716 407.774 73.068C407.454 72.42 407.294 71.656 407.294 70.776C407.294 69.888 407.45 69.12 407.762 68.472C408.082 67.816 408.538 67.316 409.13 66.972C409.722 66.62 410.418 66.444 411.218 66.444C412.026 66.444 412.726 66.62 413.318 66.972C413.91 67.316 414.362 67.816 414.674 68.472C414.994 69.12 415.154 69.884 415.154 70.764C415.154 71.644 414.994 72.412 414.674 73.068C414.362 73.716 413.91 74.216 413.318 74.568C412.726 74.92 412.026 75.096 411.218 75.096ZM411.218 74.088C412.066 74.088 412.726 73.8 413.198 73.224C413.67 72.648 413.906 71.828 413.906 70.764C413.906 69.7 413.67 68.884 413.198 68.316C412.734 67.74 412.074 67.452 411.218 67.452C410.378 67.452 409.722 67.74 409.25 68.316C408.786 68.884 408.554 69.7 408.554 70.764C408.554 71.828 408.786 72.648 409.25 73.224C409.722 73.8 410.378 74.088 411.218 74.088ZM420.583 75.096C419.455 75.096 418.599 74.804 418.015 74.22C417.431 73.636 417.139 72.776 417.139 71.64V66.54H418.363V71.724C418.363 72.5 418.547 73.088 418.915 73.488C419.291 73.888 419.847 74.088 420.583 74.088C421.311 74.088 421.863 73.888 422.239 73.488C422.615 73.088 422.803 72.5 422.803 71.724V66.54H424.027V71.64C424.027 72.768 423.731 73.628 423.139 74.22C422.555 74.804 421.703 75.096 420.583 75.096ZM428.306 67.572H425.45V66.54H432.422V67.572H429.554V75H428.306V67.572ZM440.78 75H439.412L437.972 72.288C437.812 72 437.62 71.8 437.396 71.688C437.18 71.568 436.892 71.508 436.532 71.508H435.14V75H433.916V66.54H437.516C438.452 66.54 439.164 66.748 439.652 67.164C440.148 67.58 440.396 68.188 440.396 68.988C440.396 69.636 440.212 70.168 439.844 70.584C439.484 71 438.968 71.264 438.296 71.376C438.712 71.504 439.056 71.816 439.328 72.312L440.78 75ZM437.372 70.512C437.996 70.512 438.456 70.392 438.752 70.152C439.056 69.904 439.208 69.524 439.208 69.012C439.208 68.5 439.06 68.128 438.764 67.896C438.468 67.656 438.004 67.536 437.372 67.536H435.128V70.512H437.372ZM448.047 72.912H443.763L442.863 75H441.615L445.383 66.54H446.415L450.183 75H448.947L448.047 72.912ZM447.627 71.928L445.911 67.92L444.183 71.928H447.627ZM458.599 66.54V75H457.651L452.815 68.616V75H451.651V66.54H452.587L457.435 72.936V66.54H458.599ZM466.329 75L462.165 71.016V75H460.929V66.54H462.165V70.392L466.149 66.54H467.673L463.401 70.632L467.877 75H466.329ZM475.812 71.052V75H474.576V71.052L471.204 66.54H472.62L475.2 70.032L477.78 66.54H479.184L475.812 71.052ZM483.329 75.096C482.529 75.096 481.833 74.92 481.241 74.568C480.657 74.216 480.205 73.716 479.885 73.068C479.565 72.42 479.405 71.656 479.405 70.776C479.405 69.888 479.561 69.12 479.873 68.472C480.193 67.816 480.649 67.316 481.241 66.972C481.833 66.62 482.529 66.444 483.329 66.444C484.137 66.444 484.837 66.62 485.429 66.972C486.021 67.316 486.473 67.816 486.785 68.472C487.105 69.12 487.265 69.884 487.265 70.764C487.265 71.644 487.105 72.412 486.785 73.068C486.473 73.716 486.021 74.216 485.429 74.568C484.837 74.92 484.137 75.096 483.329 75.096ZM483.329 74.088C484.177 74.088 484.837 73.8 485.309 73.224C485.781 72.648 486.017 71.828 486.017 70.764C486.017 69.7 485.781 68.884 485.309 68.316C484.845 67.74 484.185 67.452 483.329 67.452C482.489 67.452 481.833 67.74 481.361 68.316C480.897 68.884 480.665 69.7 480.665 70.764C480.665 71.828 480.897 72.648 481.361 73.224C481.833 73.8 482.489 74.088 483.329 74.088ZM492.695 75.096C491.567 75.096 490.711 74.804 490.127 74.22C489.543 73.636 489.251 72.776 489.251 71.64V66.54H490.475V71.724C490.475 72.5 490.659 73.088 491.027 73.488C491.403 73.888 491.959 74.088 492.695 74.088C493.423 74.088 493.975 73.888 494.351 73.488C494.727 73.088 494.915 72.5 494.915 71.724V66.54H496.139V71.64C496.139 72.768 495.843 73.628 495.251 74.22C494.667 74.804 493.815 75.096 492.695 75.096ZM505.265 75H503.897L502.457 72.288C502.297 72 502.105 71.8 501.881 71.688C501.665 71.568 501.377 71.508 501.017 71.508H499.625V75H498.401V66.54H502.001C502.937 66.54 503.649 66.748 504.137 67.164C504.633 67.58 504.881 68.188 504.881 68.988C504.881 69.636 504.697 70.168 504.329 70.584C503.969 71 503.453 71.264 502.781 71.376C503.197 71.504 503.541 71.816 503.813 72.312L505.265 75ZM501.857 70.512C502.481 70.512 502.941 70.392 503.237 70.152C503.541 69.904 503.693 69.524 503.693 69.012C503.693 68.5 503.545 68.128 503.249 67.896C502.953 67.656 502.489 67.536 501.857 67.536H499.613V70.512H501.857ZM514.29 75.096C513.474 75.096 512.762 74.92 512.154 74.568C511.554 74.216 511.09 73.716 510.762 73.068C510.442 72.412 510.282 71.644 510.282 70.764C510.282 69.884 510.442 69.12 510.762 68.472C511.09 67.816 511.554 67.316 512.154 66.972C512.762 66.62 513.474 66.444 514.29 66.444C514.866 66.444 515.402 66.536 515.898 66.72C516.394 66.896 516.814 67.152 517.158 67.488L516.726 68.4C516.334 68.072 515.942 67.836 515.55 67.692C515.166 67.548 514.75 67.476 514.302 67.476C513.422 67.476 512.742 67.76 512.262 68.328C511.79 68.896 511.554 69.708 511.554 70.764C511.554 71.82 511.79 72.636 512.262 73.212C512.742 73.78 513.422 74.064 514.302 74.064C514.75 74.064 515.166 73.992 515.55 73.848C515.942 73.704 516.334 73.468 516.726 73.14L517.158 74.052C516.814 74.388 516.394 74.648 515.898 74.832C515.402 75.008 514.866 75.096 514.29 75.096ZM522.547 75.096C521.747 75.096 521.051 74.92 520.459 74.568C519.875 74.216 519.423 73.716 519.103 73.068C518.783 72.42 518.623 71.656 518.623 70.776C518.623 69.888 518.779 69.12 519.091 68.472C519.411 67.816 519.867 67.316 520.459 66.972C521.051 66.62 521.747 66.444 522.547 66.444C523.355 66.444 524.055 66.62 524.647 66.972C525.239 67.316 525.691 67.816 526.003 68.472C526.323 69.12 526.483 69.884 526.483 70.764C526.483 71.644 526.323 72.412 526.003 73.068C525.691 73.716 525.239 74.216 524.647 74.568C524.055 74.92 523.355 75.096 522.547 75.096ZM522.547 74.088C523.395 74.088 524.055 73.8 524.527 73.224C524.999 72.648 525.235 71.828 525.235 70.764C525.235 69.7 524.999 68.884 524.527 68.316C524.063 67.74 523.403 67.452 522.547 67.452C521.707 67.452 521.051 67.74 520.579 68.316C520.115 68.884 519.883 69.7 519.883 70.764C519.883 71.828 520.115 72.648 520.579 73.224C521.051 73.8 521.707 74.088 522.547 74.088ZM536.641 66.54V75H535.525L535.537 68.88L533.017 73.644H532.177L529.645 68.94L529.657 75H528.541V66.54H529.537L532.609 72.396L535.657 66.54H536.641ZM538.978 66.54H542.482C543.378 66.54 544.074 66.76 544.57 67.2C545.066 67.64 545.314 68.264 545.314 69.072C545.314 69.872 545.066 70.496 544.57 70.944C544.074 71.392 543.378 71.616 542.482 71.616H540.214V75H538.978V66.54ZM542.35 70.62C543.534 70.62 544.126 70.104 544.126 69.072C544.126 68.048 543.534 67.536 542.35 67.536H540.214V70.62H542.35ZM547.166 66.54H552.662V67.536H548.378V70.2H552.422V71.208H548.378V74.004H552.662V75H547.166V66.54ZM556.492 67.572H553.636V66.54H560.608V67.572H557.74V75H556.492V67.572ZM562.101 66.54H563.337V75H562.101V66.54ZM567.677 67.572H564.821V66.54H571.793V67.572H568.925V75H567.677V67.572ZM576.407 75.096C575.607 75.096 574.911 74.92 574.319 74.568C573.735 74.216 573.283 73.716 572.963 73.068C572.643 72.42 572.483 71.656 572.483 70.776C572.483 69.888 572.639 69.12 572.951 68.472C573.271 67.816 573.727 67.316 574.319 66.972C574.911 66.62 575.607 66.444 576.407 66.444C577.215 66.444 577.915 66.62 578.507 66.972C579.099 67.316 579.551 67.816 579.863 68.472C580.183 69.12 580.343 69.884 580.343 70.764C580.343 71.644 580.183 72.412 579.863 73.068C579.551 73.716 579.099 74.216 578.507 74.568C577.915 74.92 577.215 75.096 576.407 75.096ZM576.407 74.088C577.255 74.088 577.915 73.8 578.387 73.224C578.859 72.648 579.095 71.828 579.095 70.764C579.095 69.7 578.859 68.884 578.387 68.316C577.923 67.74 577.263 67.452 576.407 67.452C575.567 67.452 574.911 67.74 574.439 68.316C573.975 68.884 573.743 69.7 573.743 70.764C573.743 71.828 573.975 72.648 574.439 73.224C574.911 73.8 575.567 74.088 576.407 74.088ZM589.252 75H587.884L586.444 72.288C586.284 72 586.092 71.8 585.868 71.688C585.652 71.568 585.364 71.508 585.004 71.508H583.612V75H582.388V66.54H585.988C586.924 66.54 587.636 66.748 588.124 67.164C588.62 67.58 588.868 68.188 588.868 68.988C588.868 69.636 588.684 70.168 588.316 70.584C587.956 71 587.44 71.264 586.768 71.376C587.184 71.504 587.528 71.816 587.8 72.312L589.252 75ZM585.844 70.512C586.468 70.512 586.928 70.392 587.224 70.152C587.528 69.904 587.68 69.524 587.68 69.012C587.68 68.5 587.532 68.128 587.236 67.896C586.94 67.656 586.476 67.536 585.844 67.536H583.6V70.512H585.844ZM593.782 75.096C593.126 75.096 592.522 75.008 591.97 74.832C591.426 74.656 590.958 74.396 590.566 74.052L591.01 73.14C591.426 73.476 591.854 73.72 592.294 73.872C592.742 74.016 593.242 74.088 593.794 74.088C594.426 74.088 594.914 73.972 595.258 73.74C595.602 73.5 595.774 73.164 595.774 72.732C595.774 72.364 595.614 72.092 595.294 71.916C594.974 71.732 594.462 71.56 593.758 71.4C593.086 71.256 592.534 71.092 592.102 70.908C591.67 70.724 591.33 70.476 591.082 70.164C590.842 69.844 590.722 69.44 590.722 68.952C590.722 68.456 590.85 68.02 591.106 67.644C591.37 67.268 591.742 66.976 592.222 66.768C592.702 66.552 593.258 66.444 593.89 66.444C594.482 66.444 595.038 66.536 595.558 66.72C596.086 66.896 596.518 67.152 596.854 67.488L596.422 68.4C596.03 68.08 595.626 67.844 595.21 67.692C594.802 67.532 594.366 67.452 593.902 67.452C593.294 67.452 592.814 67.58 592.462 67.836C592.118 68.084 591.946 68.432 591.946 68.88C591.946 69.264 592.098 69.556 592.402 69.756C592.706 69.948 593.194 70.124 593.866 70.284C594.57 70.444 595.138 70.612 595.57 70.788C596.01 70.956 596.358 71.192 596.614 71.496C596.878 71.792 597.01 72.18 597.01 72.66C597.01 73.148 596.878 73.576 596.614 73.944C596.358 74.312 595.986 74.596 595.498 74.796C595.018 74.996 594.446 75.096 593.782 75.096Z" fill="#353535"/>
    <path d="M22.48 0.619998V26H18.808V14.624H4.624V26H0.952V0.619998H4.624V11.6H18.808V0.619998H22.48ZM35.5739 26.252C33.8459 26.252 32.3219 25.88 31.0019 25.136C29.7059 24.392 28.6979 23.336 27.9779 21.968C27.2819 20.576 26.9339 18.968 26.9339 17.144C26.9339 15.296 27.2819 13.688 27.9779 12.32C28.6979 10.928 29.7059 9.86 31.0019 9.116C32.3219 8.372 33.8459 8 35.5739 8C37.3019 8 38.8139 8.372 40.1099 9.116C41.4299 9.86 42.4379 10.928 43.1339 12.32C43.8539 13.688 44.2139 15.296 44.2139 17.144C44.2139 18.968 43.8539 20.576 43.1339 21.968C42.4379 23.336 41.4299 24.392 40.1099 25.136C38.8139 25.88 37.3019 26.252 35.5739 26.252ZM35.5739 23.372C37.1819 23.372 38.4059 22.844 39.2459 21.788C40.1099 20.732 40.5419 19.184 40.5419 17.144C40.5419 15.128 40.1099 13.592 39.2459 12.536C38.3819 11.456 37.1579 10.916 35.5739 10.916C33.9899 10.916 32.7659 11.456 31.9019 12.536C31.0379 13.592 30.6059 15.128 30.6059 17.144C30.6059 19.184 31.0259 20.732 31.8659 21.788C32.7299 22.844 33.9659 23.372 35.5739 23.372ZM75.4121 8.432L68.6801 26H65.4041L60.7601 13.436L56.1161 26H52.8041L46.1081 8.432H49.8881L54.6401 21.644L59.4281 8.432H62.2721L67.0601 21.716L71.8121 8.432H75.4121ZM115.42 8.432L108.688 26H105.412L100.768 13.436L96.1239 26H92.8119L86.1159 8.432H89.8959L94.6479 21.644L99.4359 8.432H102.28L107.068 21.716L111.82 8.432H115.42ZM118.54 8.432H122.176V26H118.54V8.432ZM122.464 0.583999V4.364H118.288V0.583999H122.464ZM127.258 0.619998H130.894V26H127.258V0.619998ZM135.977 0.619998H139.613V26H135.977V0.619998ZM181.584 8.432L174.852 26H171.576L166.932 13.436L162.288 26H158.976L152.28 8.432H156.06L160.812 21.644L165.6 8.432H168.444L173.232 21.716L177.984 8.432H181.584ZM192.09 26.252C190.362 26.252 188.838 25.88 187.518 25.136C186.222 24.392 185.214 23.336 184.494 21.968C183.798 20.576 183.45 18.968 183.45 17.144C183.45 15.296 183.798 13.688 184.494 12.32C185.214 10.928 186.222 9.86 187.518 9.116C188.838 8.372 190.362 8 192.09 8C193.818 8 195.33 8.372 196.626 9.116C197.946 9.86 198.954 10.928 199.65 12.32C200.37 13.688 200.73 15.296 200.73 17.144C200.73 18.968 200.37 20.576 199.65 21.968C198.954 23.336 197.946 24.392 196.626 25.136C195.33 25.88 193.818 26.252 192.09 26.252ZM192.09 23.372C193.698 23.372 194.922 22.844 195.762 21.788C196.626 20.732 197.058 19.184 197.058 17.144C197.058 15.128 196.626 13.592 195.762 12.536C194.898 11.456 193.674 10.916 192.09 10.916C190.506 10.916 189.282 11.456 188.418 12.536C187.554 13.592 187.122 15.128 187.122 17.144C187.122 19.184 187.542 20.732 188.382 21.788C189.246 22.844 190.482 23.372 192.09 23.372ZM215.47 11.06L213.274 11.276C211.546 11.444 210.298 11.972 209.53 12.86C208.786 13.748 208.414 14.876 208.414 16.244V26H204.778V8.432H208.306V11.492C209.242 9.428 211.15 8.288 214.03 8.072L215.218 8L215.47 11.06ZM229.913 26L221.597 17.72V26H217.961V0.619998H221.597V16.352L229.301 8.468H233.801L225.485 16.892L234.521 26H229.913ZM236.559 8.432H240.195V26H236.559V8.432ZM240.483 0.583999V4.364H236.307V0.583999H240.483ZM254.746 8C258.946 8 261.046 10.364 261.046 15.092V26H257.41V15.272C257.41 13.784 257.11 12.692 256.51 11.996C255.934 11.3 255.022 10.952 253.774 10.952C252.31 10.952 251.134 11.408 250.246 12.32C249.358 13.232 248.914 14.456 248.914 15.992V26H245.278V8.432H248.842V11.24C249.418 10.184 250.222 9.38 251.254 8.828C252.286 8.276 253.45 8 254.746 8ZM282.364 8.432V24.596C282.364 27.284 281.644 29.312 280.204 30.68C278.788 32.048 276.688 32.732 273.904 32.732C272.392 32.732 270.952 32.528 269.584 32.12C268.24 31.736 267.04 31.172 265.984 30.428L267.1 27.8C268.252 28.544 269.356 29.072 270.412 29.384C271.492 29.72 272.644 29.888 273.868 29.888C277.156 29.888 278.8 28.22 278.8 24.884V22.112C278.296 23.168 277.528 23.996 276.496 24.596C275.464 25.172 274.264 25.46 272.896 25.46C271.36 25.46 269.992 25.1 268.792 24.38C267.592 23.66 266.656 22.64 265.984 21.32C265.336 20 265.012 18.476 265.012 16.748C265.012 15.02 265.348 13.496 266.02 12.176C266.692 10.856 267.616 9.836 268.792 9.116C269.992 8.372 271.36 8 272.896 8C274.24 8 275.416 8.288 276.424 8.864C277.456 9.44 278.236 10.256 278.764 11.312V8.432H282.364ZM273.76 22.58C275.32 22.58 276.544 22.064 277.432 21.032C278.32 20 278.764 18.572 278.764 16.748C278.764 14.948 278.32 13.532 277.432 12.5C276.568 11.444 275.344 10.916 273.76 10.916C272.176 10.916 270.928 11.432 270.016 12.464C269.128 13.496 268.684 14.924 268.684 16.748C268.684 18.572 269.14 20 270.052 21.032C270.964 22.064 272.2 22.58 273.76 22.58ZM324.318 8.432L317.586 26H314.31L309.666 13.436L305.022 26H301.71L295.014 8.432H298.794L303.546 21.644L308.334 8.432H311.178L315.966 21.716L320.718 8.432H324.318ZM327.438 8.432H331.074V26H327.438V8.432ZM331.362 0.583999V4.364H327.186V0.583999H331.362ZM344.473 23.444C345.025 23.444 345.565 23.408 346.093 23.336L345.913 26.108C345.313 26.204 344.689 26.252 344.041 26.252C341.761 26.252 340.057 25.7 338.929 24.596C337.825 23.468 337.273 21.848 337.273 19.736V11.24H333.853V8.432H337.273V3.14H340.909V8.432H345.733V11.24H340.909V19.592C340.909 22.16 342.097 23.444 344.473 23.444ZM358.316 8C362.516 8 364.616 10.364 364.616 15.092V26H360.98V15.272C360.98 13.784 360.68 12.692 360.08 11.996C359.504 11.3 358.592 10.952 357.344 10.952C355.88 10.952 354.704 11.408 353.816 12.32C352.928 13.232 352.484 14.456 352.484 15.992V26H348.848V0.619998H352.484V11.096C353.084 10.088 353.888 9.32 354.896 8.792C355.904 8.264 357.044 8 358.316 8ZM394.491 8.432V26H390.963V23.156C390.411 24.164 389.643 24.932 388.659 25.46C387.699 25.988 386.619 26.252 385.419 26.252C381.147 26.252 379.011 23.9 379.011 19.196V8.432H382.647V19.16C382.647 20.576 382.935 21.62 383.511 22.292C384.087 22.964 384.975 23.3 386.175 23.3C387.591 23.3 388.719 22.844 389.559 21.932C390.423 21.02 390.855 19.808 390.855 18.296V8.432H394.491ZM405.771 26.252C402.723 26.252 400.287 25.508 398.463 24.02L399.579 21.392C401.379 22.784 403.479 23.48 405.879 23.48C407.055 23.48 407.955 23.288 408.579 22.904C409.203 22.496 409.515 21.932 409.515 21.212C409.515 20.588 409.299 20.096 408.867 19.736C408.459 19.376 407.739 19.076 406.707 18.836L403.791 18.188C402.231 17.828 401.055 17.24 400.263 16.424C399.471 15.608 399.075 14.576 399.075 13.328C399.075 11.744 399.711 10.46 400.983 9.476C402.279 8.492 403.971 8 406.059 8C407.307 8 408.495 8.204 409.623 8.612C410.751 8.996 411.723 9.548 412.539 10.268L411.423 12.824C409.695 11.456 407.907 10.772 406.059 10.772C404.955 10.772 404.079 10.988 403.431 11.42C402.807 11.852 402.495 12.44 402.495 13.184C402.495 13.784 402.687 14.276 403.071 14.66C403.479 15.02 404.115 15.296 404.979 15.488L407.967 16.172C409.671 16.556 410.919 17.156 411.711 17.972C412.503 18.764 412.899 19.808 412.899 21.104C412.899 22.688 412.251 23.948 410.955 24.884C409.683 25.796 407.955 26.252 405.771 26.252ZM434.754 23.444C435.306 23.444 435.846 23.408 436.374 23.336L436.194 26.108C435.594 26.204 434.97 26.252 434.322 26.252C432.042 26.252 430.338 25.7 429.21 24.596C428.106 23.468 427.554 21.848 427.554 19.736V11.24H424.134V8.432H427.554V3.14H431.19V8.432H436.014V11.24H431.19V19.592C431.19 22.16 432.378 23.444 434.754 23.444ZM449.821 11.06L447.625 11.276C445.897 11.444 444.649 11.972 443.881 12.86C443.137 13.748 442.765 14.876 442.765 16.244V26H439.129V8.432H442.657V11.492C443.593 9.428 445.501 8.288 448.381 8.072L449.569 8L449.821 11.06ZM459.552 8C461.904 8 463.644 8.588 464.772 9.764C465.924 10.94 466.5 12.728 466.5 15.128V26H463.008V23.084C462.552 24.116 461.868 24.908 460.956 25.46C460.068 25.988 459.024 26.252 457.824 26.252C456.672 26.252 455.616 26.024 454.656 25.568C453.696 25.088 452.94 24.428 452.388 23.588C451.86 22.748 451.596 21.812 451.596 20.78C451.596 19.508 451.92 18.512 452.568 17.792C453.24 17.048 454.332 16.52 455.844 16.208C457.38 15.896 459.48 15.74 462.144 15.74H462.972V14.696C462.972 13.352 462.684 12.38 462.108 11.78C461.556 11.18 460.644 10.88 459.372 10.88C457.38 10.88 455.388 11.492 453.396 12.716L452.316 10.16C453.252 9.512 454.38 8.996 455.7 8.612C457.044 8.204 458.328 8 459.552 8ZM458.472 23.552C459.792 23.552 460.872 23.108 461.712 22.22C462.552 21.308 462.972 20.144 462.972 18.728V17.792H462.324C460.452 17.792 459.012 17.876 458.004 18.044C456.996 18.212 456.276 18.5 455.844 18.908C455.412 19.292 455.196 19.856 455.196 20.6C455.196 21.44 455.496 22.148 456.096 22.724C456.72 23.276 457.512 23.552 458.472 23.552ZM480.941 8C485.141 8 487.241 10.364 487.241 15.092V26H483.605V15.272C483.605 13.784 483.305 12.692 482.705 11.996C482.129 11.3 481.217 10.952 479.969 10.952C478.505 10.952 477.329 11.408 476.441 12.32C475.553 13.232 475.109 14.456 475.109 15.992V26H471.473V8.432H475.037V11.24C475.613 10.184 476.417 9.38 477.449 8.828C478.481 8.276 479.645 8 480.941 8ZM498.407 26.252C495.359 26.252 492.923 25.508 491.099 24.02L492.215 21.392C494.015 22.784 496.115 23.48 498.515 23.48C499.691 23.48 500.591 23.288 501.215 22.904C501.839 22.496 502.151 21.932 502.151 21.212C502.151 20.588 501.935 20.096 501.503 19.736C501.095 19.376 500.375 19.076 499.343 18.836L496.427 18.188C494.867 17.828 493.691 17.24 492.899 16.424C492.107 15.608 491.711 14.576 491.711 13.328C491.711 11.744 492.347 10.46 493.619 9.476C494.915 8.492 496.607 8 498.695 8C499.943 8 501.131 8.204 502.259 8.612C503.387 8.996 504.359 9.548 505.175 10.268L504.059 12.824C502.331 11.456 500.543 10.772 498.695 10.772C497.591 10.772 496.715 10.988 496.067 11.42C495.443 11.852 495.131 12.44 495.131 13.184C495.131 13.784 495.323 14.276 495.707 14.66C496.115 15.02 496.751 15.296 497.615 15.488L500.603 16.172C502.307 16.556 503.555 17.156 504.347 17.972C505.139 18.764 505.535 19.808 505.535 21.104C505.535 22.688 504.887 23.948 503.591 24.884C502.319 25.796 500.591 26.252 498.407 26.252ZM514.335 8.432H519.159V11.24H514.335V26H510.699V11.24H507.279V8.432H510.699V8.108C510.699 5.684 511.311 3.86 512.535 2.636C513.783 1.412 515.679 0.727998 518.223 0.583999L519.843 0.512L520.059 3.248L518.403 3.356C516.963 3.428 515.919 3.8 515.271 4.472C514.647 5.144 514.335 6.164 514.335 7.532V8.432ZM529.343 26.252C527.615 26.252 526.091 25.88 524.771 25.136C523.475 24.392 522.467 23.336 521.747 21.968C521.051 20.576 520.703 18.968 520.703 17.144C520.703 15.296 521.051 13.688 521.747 12.32C522.467 10.928 523.475 9.86 524.771 9.116C526.091 8.372 527.615 8 529.343 8C531.071 8 532.583 8.372 533.879 9.116C535.199 9.86 536.207 10.928 536.903 12.32C537.623 13.688 537.983 15.296 537.983 17.144C537.983 18.968 537.623 20.576 536.903 21.968C536.207 23.336 535.199 24.392 533.879 25.136C532.583 25.88 531.071 26.252 529.343 26.252ZM529.343 23.372C530.951 23.372 532.175 22.844 533.015 21.788C533.879 20.732 534.311 19.184 534.311 17.144C534.311 15.128 533.879 13.592 533.015 12.536C532.151 11.456 530.927 10.916 529.343 10.916C527.759 10.916 526.535 11.456 525.671 12.536C524.807 13.592 524.375 15.128 524.375 17.144C524.375 19.184 524.795 20.732 525.635 21.788C526.499 22.844 527.735 23.372 529.343 23.372ZM552.724 11.06L550.528 11.276C548.8 11.444 547.552 11.972 546.784 12.86C546.04 13.748 545.668 14.876 545.668 16.244V26H542.032V8.432H545.56V11.492C546.496 9.428 548.404 8.288 551.284 8.072L552.472 8L552.724 11.06ZM575.375 8C579.311 8 581.279 10.364 581.279 15.092V26H577.643V15.236C577.643 13.748 577.379 12.668 576.851 11.996C576.347 11.3 575.519 10.952 574.367 10.952C573.047 10.952 572.003 11.408 571.235 12.32C570.467 13.232 570.083 14.48 570.083 16.064V26H566.447V15.236C566.447 13.748 566.183 12.668 565.655 11.996C565.127 11.3 564.299 10.952 563.171 10.952C561.827 10.952 560.771 11.408 560.003 12.32C559.235 13.232 558.851 14.48 558.851 16.064V26H555.215V8.432H558.779V11.096C559.331 10.112 560.075 9.356 561.011 8.828C561.947 8.276 563.015 8 564.215 8C566.927 8 568.691 9.128 569.507 11.384C570.059 10.328 570.851 9.5 571.883 8.9C572.915 8.3 574.079 8 575.375 8ZM611.842 8.468L601.366 32.48H597.694L600.754 25.568L593.374 8.468H597.19L602.662 21.896L608.206 8.468H611.842ZM621.84 26.252C620.112 26.252 618.588 25.88 617.268 25.136C615.972 24.392 614.964 23.336 614.244 21.968C613.548 20.576 613.2 18.968 613.2 17.144C613.2 15.296 613.548 13.688 614.244 12.32C614.964 10.928 615.972 9.86 617.268 9.116C618.588 8.372 620.112 8 621.84 8C623.568 8 625.08 8.372 626.376 9.116C627.696 9.86 628.704 10.928 629.4 12.32C630.12 13.688 630.48 15.296 630.48 17.144C630.48 18.968 630.12 20.576 629.4 21.968C628.704 23.336 627.696 24.392 626.376 25.136C625.08 25.88 623.568 26.252 621.84 26.252ZM621.84 23.372C623.448 23.372 624.672 22.844 625.512 21.788C626.376 20.732 626.808 19.184 626.808 17.144C626.808 15.128 626.376 13.592 625.512 12.536C624.648 11.456 623.424 10.916 621.84 10.916C620.256 10.916 619.032 11.456 618.168 12.536C617.304 13.592 616.872 15.128 616.872 17.144C616.872 19.184 617.292 20.732 618.132 21.788C618.996 22.844 620.232 23.372 621.84 23.372ZM649.936 8.432V26H646.408V23.156C645.856 24.164 645.088 24.932 644.104 25.46C643.144 25.988 642.064 26.252 640.864 26.252C636.592 26.252 634.456 23.9 634.456 19.196V8.432H638.092V19.16C638.092 20.576 638.38 21.62 638.956 22.292C639.532 22.964 640.42 23.3 641.62 23.3C643.036 23.3 644.164 22.844 645.004 21.932C645.868 21.02 646.3 19.808 646.3 18.296V8.432H649.936ZM665.716 11.06L663.52 11.276C661.792 11.444 660.544 11.972 659.776 12.86C659.032 13.748 658.66 14.876 658.66 16.244V26H655.024V8.432H658.552V11.492C659.488 9.428 661.396 8.288 664.276 8.072L665.464 8L665.716 11.06ZM687.132 8C688.668 8 690.024 8.372 691.2 9.116C692.376 9.86 693.288 10.916 693.936 12.284C694.608 13.652 694.944 15.248 694.944 17.072C694.944 18.872 694.608 20.468 693.936 21.86C693.288 23.252 692.364 24.332 691.164 25.1C689.988 25.868 688.644 26.252 687.132 26.252C685.812 26.252 684.648 25.976 683.64 25.424C682.632 24.848 681.864 24.032 681.336 22.976V26H677.7V0.619998H681.336V11.312C681.864 10.256 682.632 9.44 683.64 8.864C684.648 8.288 685.812 8 687.132 8ZM686.268 23.372C687.828 23.372 689.04 22.82 689.904 21.716C690.792 20.612 691.236 19.064 691.236 17.072C691.236 15.104 690.804 13.592 689.94 12.536C689.076 11.456 687.852 10.916 686.268 10.916C684.684 10.916 683.46 11.456 682.596 12.536C681.756 13.616 681.336 15.152 681.336 17.144C681.336 19.136 681.756 20.672 682.596 21.752C683.46 22.832 684.684 23.372 686.268 23.372ZM714.377 8.432V26H710.849V23.156C710.297 24.164 709.529 24.932 708.545 25.46C707.585 25.988 706.505 26.252 705.305 26.252C701.033 26.252 698.897 23.9 698.897 19.196V8.432H702.533V19.16C702.533 20.576 702.821 21.62 703.397 22.292C703.973 22.964 704.861 23.3 706.061 23.3C707.477 23.3 708.605 22.844 709.445 21.932C710.309 21.02 710.741 19.808 710.741 18.296V8.432H714.377ZM725.657 26.252C722.609 26.252 720.173 25.508 718.349 24.02L719.465 21.392C721.265 22.784 723.365 23.48 725.765 23.48C726.941 23.48 727.841 23.288 728.465 22.904C729.089 22.496 729.401 21.932 729.401 21.212C729.401 20.588 729.185 20.096 728.753 19.736C728.345 19.376 727.625 19.076 726.593 18.836L723.677 18.188C722.117 17.828 720.941 17.24 720.149 16.424C719.357 15.608 718.961 14.576 718.961 13.328C718.961 11.744 719.597 10.46 720.869 9.476C722.165 8.492 723.857 8 725.945 8C727.193 8 728.381 8.204 729.509 8.612C730.637 8.996 731.609 9.548 732.425 10.268L731.309 12.824C729.581 11.456 727.793 10.772 725.945 10.772C724.841 10.772 723.965 10.988 723.317 11.42C722.693 11.852 722.381 12.44 722.381 13.184C722.381 13.784 722.573 14.276 722.957 14.66C723.365 15.02 724.001 15.296 724.865 15.488L727.853 16.172C729.557 16.556 730.805 17.156 731.597 17.972C732.389 18.764 732.785 19.808 732.785 21.104C732.785 22.688 732.137 23.948 730.841 24.884C729.569 25.796 727.841 26.252 725.657 26.252ZM736.833 8.432H740.469V26H736.833V8.432ZM740.757 0.583999V4.364H736.581V0.583999H740.757ZM755.019 8C759.219 8 761.319 10.364 761.319 15.092V26H757.683V15.272C757.683 13.784 757.383 12.692 756.783 11.996C756.207 11.3 755.295 10.952 754.047 10.952C752.583 10.952 751.407 11.408 750.519 12.32C749.631 13.232 749.187 14.456 749.187 15.992V26H745.551V8.432H749.115V11.24C749.691 10.184 750.495 9.38 751.527 8.828C752.559 8.276 753.723 8 755.019 8ZM781.341 17.828H768.921C769.185 21.548 771.033 23.408 774.465 23.408C776.481 23.408 778.305 22.748 779.937 21.428L781.053 23.984C780.237 24.68 779.229 25.232 778.029 25.64C776.829 26.048 775.605 26.252 774.357 26.252C771.549 26.252 769.329 25.448 767.697 23.84C766.089 22.232 765.285 20.012 765.285 17.18C765.285 15.38 765.633 13.784 766.329 12.392C767.049 11 768.045 9.92 769.317 9.152C770.613 8.384 772.077 8 773.709 8C776.085 8 777.945 8.768 779.289 10.304C780.657 11.84 781.341 13.964 781.341 16.676V17.828ZM773.781 10.664C772.389 10.664 771.273 11.108 770.433 11.996C769.617 12.86 769.125 14.108 768.957 15.74H778.209C778.137 14.108 777.717 12.86 776.949 11.996C776.205 11.108 775.149 10.664 773.781 10.664ZM791.54 26.252C788.492 26.252 786.056 25.508 784.232 24.02L785.348 21.392C787.148 22.784 789.248 23.48 791.648 23.48C792.824 23.48 793.724 23.288 794.348 22.904C794.972 22.496 795.284 21.932 795.284 21.212C795.284 20.588 795.068 20.096 794.636 19.736C794.228 19.376 793.508 19.076 792.476 18.836L789.56 18.188C788 17.828 786.824 17.24 786.032 16.424C785.24 15.608 784.844 14.576 784.844 13.328C784.844 11.744 785.48 10.46 786.752 9.476C788.048 8.492 789.74 8 791.828 8C793.076 8 794.264 8.204 795.392 8.612C796.52 8.996 797.492 9.548 798.308 10.268L797.192 12.824C795.464 11.456 793.676 10.772 791.828 10.772C790.724 10.772 789.848 10.988 789.2 11.42C788.576 11.852 788.264 12.44 788.264 13.184C788.264 13.784 788.456 14.276 788.84 14.66C789.248 15.02 789.884 15.296 790.748 15.488L793.736 16.172C795.44 16.556 796.688 17.156 797.48 17.972C798.272 18.764 798.668 19.808 798.668 21.104C798.668 22.688 798.02 23.948 796.724 24.884C795.452 25.796 793.724 26.252 791.54 26.252ZM808.907 26.252C805.859 26.252 803.423 25.508 801.599 24.02L802.715 21.392C804.515 22.784 806.615 23.48 809.015 23.48C810.191 23.48 811.091 23.288 811.715 22.904C812.339 22.496 812.651 21.932 812.651 21.212C812.651 20.588 812.435 20.096 812.003 19.736C811.595 19.376 810.875 19.076 809.843 18.836L806.927 18.188C805.367 17.828 804.191 17.24 803.399 16.424C802.607 15.608 802.211 14.576 802.211 13.328C802.211 11.744 802.847 10.46 804.119 9.476C805.415 8.492 807.107 8 809.195 8C810.443 8 811.631 8.204 812.759 8.612C813.887 8.996 814.859 9.548 815.675 10.268L814.559 12.824C812.831 11.456 811.043 10.772 809.195 10.772C808.091 10.772 807.215 10.988 806.567 11.42C805.943 11.852 805.631 12.44 805.631 13.184C805.631 13.784 805.823 14.276 806.207 14.66C806.615 15.02 807.251 15.296 808.115 15.488L811.103 16.172C812.807 16.556 814.055 17.156 814.847 17.972C815.639 18.764 816.035 19.808 816.035 21.104C816.035 22.688 815.387 23.948 814.091 24.884C812.819 25.796 811.091 26.252 808.907 26.252ZM823.799 17.828C823.799 16.412 824.051 15.212 824.555 14.228C825.059 13.244 825.791 12.164 826.751 10.988C827.519 10.028 828.083 9.224 828.443 8.576C828.803 7.928 828.983 7.196 828.983 6.38C828.983 5.444 828.659 4.712 828.011 4.184C827.363 3.656 826.463 3.392 825.311 3.392C824.231 3.392 823.103 3.632 821.927 4.112C820.775 4.568 819.647 5.24 818.543 6.128L817.211 3.392C818.219 2.456 819.479 1.712 820.991 1.16C822.503 0.607998 824.015 0.331998 825.527 0.331998C827.663 0.331998 829.391 0.859998 830.711 1.916C832.031 2.972 832.691 4.364 832.691 6.092C832.691 6.956 832.535 7.76 832.223 8.504C831.935 9.248 831.563 9.908 831.107 10.484C830.675 11.036 830.087 11.732 829.343 12.572C828.311 13.7 827.531 14.66 827.003 15.452C826.499 16.244 826.187 17.156 826.067 18.188L825.923 18.98H823.799V17.828ZM822.755 21.716H827.039V26H822.755V21.716Z" fill="#353535"/>
    </svg>
    