<svg width="217" height="76" viewBox="0 0 217 76" fill="none" xmlns="http://www.w3.org/2000/svg">
    <g filter="url(#filter0_d)">
        <rect x="10" y="6" width="197" height="56" rx="28" fill="white" />
    </g>
    <path d="M54.7284 35.047V39.441C54.3124 39.649 53.8054 39.8137 53.2074 39.935C52.6181 40.0563 52.0158 40.117 51.4004 40.117C50.4558 40.117 49.6368 39.9307 48.9434 39.558C48.2501 39.1767 47.7171 38.635 47.3444 37.933C46.9804 37.2223 46.7984 36.3817 46.7984 35.411C46.7984 34.449 46.9804 33.617 47.3444 32.915C47.7171 32.2043 48.2414 31.6627 48.9174 31.29C49.6021 30.9087 50.4038 30.718 51.3224 30.718C51.9638 30.718 52.5661 30.8133 53.1294 31.004C53.6928 31.186 54.1608 31.4503 54.5334 31.797L53.9744 33.006C53.5498 32.6767 53.1294 32.4427 52.7134 32.304C52.3061 32.1567 51.8554 32.083 51.3614 32.083C50.4168 32.083 49.7018 32.3647 49.2164 32.928C48.7398 33.4827 48.5014 34.3103 48.5014 35.411C48.5014 37.6643 49.4894 38.791 51.4654 38.791C52.0548 38.791 52.6441 38.7087 53.2334 38.544V36.243H51.2574V35.047H54.7284ZM62.4426 37.114H58.1136C58.1656 37.7033 58.3433 38.141 58.6466 38.427C58.95 38.713 59.3833 38.856 59.9466 38.856C60.6486 38.856 61.29 38.6307 61.8706 38.18L62.3386 39.298C62.044 39.5407 61.6713 39.7357 61.2206 39.883C60.7786 40.0303 60.3323 40.104 59.8816 40.104C58.8416 40.104 58.0183 39.8093 57.4116 39.22C56.8136 38.6307 56.5146 37.8247 56.5146 36.802C56.5146 36.152 56.6446 35.5757 56.9046 35.073C57.1646 34.5703 57.5286 34.1803 57.9966 33.903C58.4733 33.6257 59.0106 33.487 59.6086 33.487C60.484 33.487 61.173 33.7687 61.6756 34.332C62.187 34.8953 62.4426 35.671 62.4426 36.659V37.114ZM59.6476 34.631C59.2143 34.631 58.8633 34.7697 58.5946 35.047C58.3346 35.3243 58.1743 35.723 58.1136 36.243H61.0516C61.0343 35.7143 60.9043 35.3157 60.6616 35.047C60.419 34.7697 60.081 34.631 59.6476 34.631ZM67.323 38.882C67.5137 38.882 67.713 38.869 67.921 38.843L67.843 40.052C67.583 40.078 67.3447 40.091 67.128 40.091C66.2353 40.091 65.5767 39.8873 65.152 39.48C64.7273 39.064 64.515 38.4487 64.515 37.634V34.865H63.293V33.643H64.515V31.745H66.14V33.643H67.817V34.865H66.14V37.608C66.14 38.4573 66.5343 38.882 67.323 38.882ZM77.2241 35.775V40H75.5471V35.775L71.8421 30.835H73.7271L76.3791 34.436L79.0441 30.835H80.9421L77.2241 35.775ZM83.5541 40.104C82.9041 40.104 82.3321 39.9697 81.8381 39.701C81.3528 39.4323 80.9758 39.0467 80.7071 38.544C80.4385 38.0413 80.3041 37.4563 80.3041 36.789C80.3041 36.1217 80.4385 35.541 80.7071 35.047C80.9758 34.5443 81.3528 34.1587 81.8381 33.89C82.3321 33.6213 82.9041 33.487 83.5541 33.487C84.2041 33.487 84.7718 33.6213 85.2571 33.89C85.7511 34.1587 86.1281 34.5443 86.3881 35.047C86.6568 35.541 86.7911 36.1217 86.7911 36.789C86.7911 37.4563 86.6568 38.0413 86.3881 38.544C86.1281 39.0467 85.7511 39.4323 85.2571 39.701C84.7718 39.9697 84.2041 40.104 83.5541 40.104ZM83.5411 38.843C84.0698 38.843 84.4728 38.6697 84.7501 38.323C85.0275 37.9763 85.1661 37.465 85.1661 36.789C85.1661 36.1217 85.0275 35.6147 84.7501 35.268C84.4728 34.9127 84.0741 34.735 83.5541 34.735C83.0341 34.735 82.6311 34.9127 82.3451 35.268C82.0678 35.6147 81.9291 36.1217 81.9291 36.789C81.9291 37.465 82.0678 37.9763 82.3451 38.323C82.6225 38.6697 83.0211 38.843 83.5411 38.843ZM94.3597 33.643V40H92.7737V39.025C92.5743 39.3717 92.3057 39.6403 91.9677 39.831C91.6297 40.013 91.2483 40.104 90.8237 40.104C89.2637 40.104 88.4837 39.2287 88.4837 37.478V33.643H90.1087V37.491C90.1087 37.9417 90.1997 38.2753 90.3817 38.492C90.5637 38.7087 90.8497 38.817 91.2397 38.817C91.6903 38.817 92.05 38.6697 92.3187 38.375C92.596 38.0717 92.7347 37.673 92.7347 37.179V33.643H94.3597ZM100.627 34.839L99.678 34.93C98.6033 35.0427 98.066 35.5887 98.066 36.568V40H96.441V33.643H97.988V34.761C98.3173 33.9983 98.9976 33.5823 100.029 33.513L100.523 33.474L100.627 34.839ZM105.87 30.835H111.876V32.174H107.521V34.67H111.616V36.009H107.521V40H105.87V30.835ZM117.539 34.839L116.59 34.93C115.515 35.0427 114.978 35.5887 114.978 36.568V40H113.353V33.643H114.9V34.761C115.229 33.9983 115.91 33.5823 116.941 33.513L117.435 33.474L117.539 34.839ZM124.17 37.114H119.841C119.893 37.7033 120.07 38.141 120.374 38.427C120.677 38.713 121.11 38.856 121.674 38.856C122.376 38.856 123.017 38.6307 123.598 38.18L124.066 39.298C123.771 39.5407 123.398 39.7357 122.948 39.883C122.506 40.0303 122.059 40.104 121.609 40.104C120.569 40.104 119.745 39.8093 119.139 39.22C118.541 38.6307 118.242 37.8247 118.242 36.802C118.242 36.152 118.372 35.5757 118.632 35.073C118.892 34.5703 119.256 34.1803 119.724 33.903C120.2 33.6257 120.738 33.487 121.336 33.487C122.211 33.487 122.9 33.7687 123.403 34.332C123.914 34.8953 124.17 35.671 124.17 36.659V37.114ZM121.375 34.631C120.941 34.631 120.59 34.7697 120.322 35.047C120.062 35.3243 119.901 35.723 119.841 36.243H122.779C122.761 35.7143 122.631 35.3157 122.389 35.047C122.146 34.7697 121.808 34.631 121.375 34.631ZM131.466 37.114H127.137C127.189 37.7033 127.367 38.141 127.67 38.427C127.973 38.713 128.407 38.856 128.97 38.856C129.672 38.856 130.313 38.6307 130.894 38.18L131.362 39.298C131.067 39.5407 130.695 39.7357 130.244 39.883C129.802 40.0303 129.356 40.104 128.905 40.104C127.865 40.104 127.042 39.8093 126.435 39.22C125.837 38.6307 125.538 37.8247 125.538 36.802C125.538 36.152 125.668 35.5757 125.928 35.073C126.188 34.5703 126.552 34.1803 127.02 33.903C127.497 33.6257 128.034 33.487 128.632 33.487C129.507 33.487 130.196 33.7687 130.699 34.332C131.21 34.8953 131.466 35.671 131.466 36.659V37.114ZM128.671 34.631C128.238 34.631 127.887 34.7697 127.618 35.047C127.358 35.3243 127.198 35.723 127.137 36.243H130.075C130.058 35.7143 129.928 35.3157 129.685 35.047C129.442 34.7697 129.104 34.631 128.671 34.631ZM143.332 37.855H138.873L137.95 40H136.26L140.407 30.835H141.772L145.919 40H144.255L143.332 37.855ZM142.773 36.555L141.096 32.655L139.419 36.555H142.773ZM152.98 33.643V40H151.394V39.025C151.195 39.3717 150.926 39.6403 150.588 39.831C150.25 40.013 149.869 40.104 149.444 40.104C147.884 40.104 147.104 39.2287 147.104 37.478V33.643H148.729V37.491C148.729 37.9417 148.82 38.2753 149.002 38.492C149.184 38.7087 149.47 38.817 149.86 38.817C150.311 38.817 150.67 38.6697 150.939 38.375C151.216 38.0717 151.355 37.673 151.355 37.179V33.643H152.98ZM161.197 30.835V40H159.585V38.973C159.395 39.3283 159.117 39.6057 158.753 39.805C158.398 40.0043 157.991 40.104 157.531 40.104C156.985 40.104 156.496 39.9653 156.062 39.688C155.638 39.4107 155.304 39.0207 155.061 38.518C154.827 38.0067 154.71 37.4217 154.71 36.763C154.71 36.1043 154.827 35.528 155.061 35.034C155.304 34.54 155.638 34.1587 156.062 33.89C156.487 33.6213 156.977 33.487 157.531 33.487C157.991 33.487 158.398 33.5823 158.753 33.773C159.109 33.9637 159.382 34.2323 159.572 34.579V30.835H161.197ZM157.96 38.843C158.48 38.843 158.879 38.6653 159.156 38.31C159.442 37.9547 159.585 37.4477 159.585 36.789C159.585 36.1303 159.442 35.6277 159.156 35.281C158.879 34.9257 158.485 34.748 157.973 34.748C157.453 34.748 157.05 34.9213 156.764 35.268C156.478 35.6147 156.335 36.113 156.335 36.763C156.335 37.4217 156.478 37.933 156.764 38.297C157.05 38.661 157.449 38.843 157.96 38.843ZM163.259 33.643H164.884V40H163.259V33.643ZM164.962 30.692V32.291H163.168V30.692H164.962ZM170.2 38.882C170.39 38.882 170.59 38.869 170.798 38.843L170.72 40.052C170.46 40.078 170.221 40.091 170.005 40.091C169.112 40.091 168.453 39.8873 168.029 39.48C167.604 39.064 167.392 38.4487 167.392 37.634V34.865H166.17V33.643H167.392V31.745H169.017V33.643H170.694V34.865H169.017V37.608C169.017 38.4573 169.411 38.882 170.2 38.882Z" fill="#366DD6" />
    <defs>
        <filter id="filter0_d" x="0" y="0" width="217" height="76" filterUnits="userSpaceOnUse" color-interpolation-filters="sRGB">
            <feFlood flood-opacity="0" result="BackgroundImageFix" />
            <feColorMatrix in="SourceAlpha" type="matrix" values="0 0 0 0 0 0 0 0 0 0 0 0 0 0 0 0 0 0 127 0" />
            <feOffset dy="4" />
            <feGaussianBlur stdDeviation="5" />
            <feColorMatrix type="matrix" values="0 0 0 0 0 0 0 0 0 0.121333 0 0 0 0 0.758333 0 0 0 0.2 0" />
            <feBlend mode="normal" in2="BackgroundImageFix" result="effect1_dropShadow" />
            <feBlend mode="normal" in="SourceGraphic" in2="effect1_dropShadow" result="shape" />
        </filter>
    </defs>
</svg>
    