<svg width="202" height="52" viewBox="0 0 202 52" fill="none" xmlns="http://www.w3.org/2000/svg">
    <g filter="url(#filter0_d)">
    <rect x="6" y="6" width="190" height="40" rx="20" fill="white"/>
    </g>
    <path d="M46.938 32.144C45.954 32.144 45.048 32.012 44.22 31.748C43.404 31.484 42.702 31.094 42.114 30.578L42.78 29.21C43.404 29.714 44.046 30.08 44.706 30.308C45.378 30.524 46.128 30.632 46.956 30.632C47.904 30.632 48.636 30.458 49.152 30.11C49.668 29.75 49.926 29.246 49.926 28.598C49.926 28.046 49.686 27.638 49.206 27.374C48.726 27.098 47.958 26.84 46.902 26.6C45.894 26.384 45.066 26.138 44.418 25.862C43.77 25.586 43.26 25.214 42.888 24.746C42.528 24.266 42.348 23.66 42.348 22.928C42.348 22.184 42.54 21.53 42.924 20.966C43.32 20.402 43.878 19.964 44.598 19.652C45.318 19.328 46.152 19.166 47.1 19.166C47.988 19.166 48.822 19.304 49.602 19.58C50.394 19.844 51.042 20.228 51.546 20.732L50.898 22.1C50.31 21.62 49.704 21.266 49.08 21.038C48.468 20.798 47.814 20.678 47.118 20.678C46.206 20.678 45.486 20.87 44.958 21.254C44.442 21.626 44.184 22.148 44.184 22.82C44.184 23.396 44.412 23.834 44.868 24.134C45.324 24.422 46.056 24.686 47.064 24.926C48.12 25.166 48.972 25.418 49.62 25.682C50.28 25.934 50.802 26.288 51.186 26.744C51.582 27.188 51.78 27.77 51.78 28.49C51.78 29.222 51.582 29.864 51.186 30.416C50.802 30.968 50.244 31.394 49.512 31.694C48.792 31.994 47.934 32.144 46.938 32.144ZM58.2411 32.126C57.3531 32.126 56.5791 31.94 55.9191 31.568C55.2711 31.196 54.7671 30.674 54.4071 30.002C54.0591 29.318 53.8851 28.52 53.8851 27.608C53.8851 26.696 54.0651 25.892 54.4251 25.196C54.7971 24.5 55.3131 23.96 55.9731 23.576C56.6451 23.192 57.4251 23 58.3131 23C58.9251 23 59.5131 23.102 60.0771 23.306C60.6531 23.51 61.1211 23.786 61.4811 24.134L60.9231 25.43C60.1311 24.782 59.3091 24.458 58.4571 24.458C57.6171 24.458 56.9571 24.734 56.4771 25.286C56.0091 25.826 55.7751 26.594 55.7751 27.59C55.7751 28.574 56.0091 29.336 56.4771 29.876C56.9451 30.404 57.6051 30.668 58.4571 30.668C59.3091 30.668 60.1311 30.344 60.9231 29.696L61.4811 31.01C61.0971 31.358 60.6171 31.634 60.0411 31.838C59.4651 32.03 58.8651 32.126 58.2411 32.126ZM68.3643 23C70.4643 23 71.5143 24.182 71.5143 26.546V32H69.6963V26.636C69.6963 25.892 69.5463 25.346 69.2463 24.998C68.9583 24.65 68.5023 24.476 67.8783 24.476C67.1463 24.476 66.5583 24.704 66.1143 25.16C65.6703 25.616 65.4483 26.228 65.4483 26.996V32H63.6303V19.31H65.4483V24.548C65.7483 24.044 66.1503 23.66 66.6543 23.396C67.1583 23.132 67.7283 23 68.3643 23ZM82.0654 27.914H75.8554C75.9874 29.774 76.9114 30.704 78.6274 30.704C79.6354 30.704 80.5474 30.374 81.3634 29.714L81.9214 30.992C81.5134 31.34 81.0094 31.616 80.4094 31.82C79.8094 32.024 79.1974 32.126 78.5734 32.126C77.1694 32.126 76.0594 31.724 75.2434 30.92C74.4394 30.116 74.0374 29.006 74.0374 27.59C74.0374 26.69 74.2114 25.892 74.5594 25.196C74.9194 24.5 75.4174 23.96 76.0534 23.576C76.7014 23.192 77.4334 23 78.2494 23C79.4374 23 80.3674 23.384 81.0394 24.152C81.7234 24.92 82.0654 25.982 82.0654 27.338V27.914ZM78.2854 24.332C77.5894 24.332 77.0314 24.554 76.6114 24.998C76.2034 25.43 75.9574 26.054 75.8734 26.87H80.4994C80.4634 26.054 80.2534 25.43 79.8694 24.998C79.4974 24.554 78.9694 24.332 78.2854 24.332ZM92.7088 19.31V32H90.9088V30.488C90.6448 31.016 90.2608 31.424 89.7568 31.712C89.2528 31.988 88.6708 32.126 88.0108 32.126C87.2548 32.126 86.5768 31.934 85.9768 31.55C85.3888 31.166 84.9268 30.626 84.5908 29.93C84.2668 29.234 84.1048 28.436 84.1048 27.536C84.1048 26.624 84.2668 25.826 84.5908 25.142C84.9268 24.458 85.3888 23.93 85.9768 23.558C86.5648 23.186 87.2428 23 88.0108 23C88.6708 23 89.2468 23.144 89.7388 23.432C90.2428 23.708 90.6268 24.104 90.8908 24.62V19.31H92.7088ZM88.4428 30.686C89.2348 30.686 89.8408 30.416 90.2608 29.876C90.6928 29.336 90.9088 28.568 90.9088 27.572C90.9088 26.576 90.6928 25.808 90.2608 25.268C89.8408 24.728 89.2348 24.458 88.4428 24.458C87.6508 24.458 87.0328 24.728 86.5888 25.268C86.1568 25.796 85.9408 26.552 85.9408 27.536C85.9408 28.52 86.1628 29.294 86.6068 29.858C87.0508 30.41 87.6628 30.686 88.4428 30.686ZM103.488 23.216V32H101.724V30.578C101.448 31.082 101.064 31.466 100.572 31.73C100.092 31.994 99.5515 32.126 98.9515 32.126C96.8155 32.126 95.7475 30.95 95.7475 28.598V23.216H97.5655V28.58C97.5655 29.288 97.7095 29.81 97.9975 30.146C98.2855 30.482 98.7295 30.65 99.3295 30.65C100.038 30.65 100.602 30.422 101.022 29.966C101.454 29.51 101.67 28.904 101.67 28.148V23.216H103.488ZM106.572 19.31H108.39V32H106.572V19.31ZM118.995 27.914H112.785C112.917 29.774 113.841 30.704 115.557 30.704C116.565 30.704 117.477 30.374 118.293 29.714L118.851 30.992C118.443 31.34 117.939 31.616 117.339 31.82C116.739 32.024 116.127 32.126 115.503 32.126C114.099 32.126 112.989 31.724 112.173 30.92C111.369 30.116 110.967 29.006 110.967 27.59C110.967 26.69 111.141 25.892 111.489 25.196C111.849 24.5 112.347 23.96 112.983 23.576C113.631 23.192 114.363 23 115.179 23C116.367 23 117.297 23.384 117.969 24.152C118.653 24.92 118.995 25.982 118.995 27.338V27.914ZM115.215 24.332C114.519 24.332 113.961 24.554 113.541 24.998C113.133 25.43 112.887 26.054 112.803 26.87H117.429C117.393 26.054 117.183 25.43 116.799 24.998C116.427 24.554 115.899 24.332 115.215 24.332ZM130.496 23C131.672 23 132.542 23.294 133.106 23.882C133.682 24.47 133.97 25.364 133.97 26.564V32H132.224V30.542C131.996 31.058 131.654 31.454 131.198 31.73C130.754 31.994 130.232 32.126 129.632 32.126C129.056 32.126 128.528 32.012 128.048 31.784C127.568 31.544 127.19 31.214 126.914 30.794C126.65 30.374 126.518 29.906 126.518 29.39C126.518 28.754 126.68 28.256 127.004 27.896C127.34 27.524 127.886 27.26 128.642 27.104C129.41 26.948 130.46 26.87 131.792 26.87H132.206V26.348C132.206 25.676 132.062 25.19 131.774 24.89C131.498 24.59 131.042 24.44 130.406 24.44C129.41 24.44 128.414 24.746 127.418 25.358L126.878 24.08C127.346 23.756 127.91 23.498 128.57 23.306C129.242 23.102 129.884 23 130.496 23ZM129.956 30.776C130.616 30.776 131.156 30.554 131.576 30.11C131.996 29.654 132.206 29.072 132.206 28.364V27.896H131.882C130.946 27.896 130.226 27.938 129.722 28.022C129.218 28.106 128.858 28.25 128.642 28.454C128.426 28.646 128.318 28.928 128.318 29.3C128.318 29.72 128.468 30.074 128.768 30.362C129.08 30.638 129.476 30.776 129.956 30.776ZM146.135 32.126C145.247 32.126 144.473 31.94 143.813 31.568C143.165 31.196 142.661 30.674 142.301 30.002C141.953 29.318 141.779 28.52 141.779 27.608C141.779 26.696 141.959 25.892 142.319 25.196C142.691 24.5 143.207 23.96 143.867 23.576C144.539 23.192 145.319 23 146.207 23C146.819 23 147.407 23.102 147.971 23.306C148.547 23.51 149.015 23.786 149.375 24.134L148.817 25.43C148.025 24.782 147.203 24.458 146.351 24.458C145.511 24.458 144.851 24.734 144.371 25.286C143.903 25.826 143.669 26.594 143.669 27.59C143.669 28.574 143.903 29.336 144.371 29.876C144.839 30.404 145.499 30.668 146.351 30.668C147.203 30.668 148.025 30.344 148.817 29.696L149.375 31.01C148.991 31.358 148.511 31.634 147.935 31.838C147.359 32.03 146.759 32.126 146.135 32.126ZM155.196 23C156.372 23 157.242 23.294 157.806 23.882C158.382 24.47 158.67 25.364 158.67 26.564V32H156.924V30.542C156.696 31.058 156.354 31.454 155.898 31.73C155.454 31.994 154.932 32.126 154.332 32.126C153.756 32.126 153.228 32.012 152.748 31.784C152.268 31.544 151.89 31.214 151.614 30.794C151.35 30.374 151.218 29.906 151.218 29.39C151.218 28.754 151.38 28.256 151.704 27.896C152.04 27.524 152.586 27.26 153.342 27.104C154.11 26.948 155.16 26.87 156.492 26.87H156.906V26.348C156.906 25.676 156.762 25.19 156.474 24.89C156.198 24.59 155.742 24.44 155.106 24.44C154.11 24.44 153.114 24.746 152.118 25.358L151.578 24.08C152.046 23.756 152.61 23.498 153.27 23.306C153.942 23.102 154.584 23 155.196 23ZM154.656 30.776C155.316 30.776 155.856 30.554 156.276 30.11C156.696 29.654 156.906 29.072 156.906 28.364V27.896H156.582C155.646 27.896 154.926 27.938 154.422 28.022C153.918 28.106 153.558 28.25 153.342 28.454C153.126 28.646 153.018 28.928 153.018 29.3C153.018 29.72 153.168 30.074 153.468 30.362C153.78 30.638 154.176 30.776 154.656 30.776ZM161.697 19.31H163.515V32H161.697V19.31ZM166.597 19.31H168.415V32H166.597V19.31Z" fill="#3082EA"/>
    <defs>
    <filter id="filter0_d" x="0" y="0" width="202" height="52" filterUnits="userSpaceOnUse" color-interpolation-filters="sRGB">
    <feFlood flood-opacity="0" result="BackgroundImageFix"/>
    <feColorMatrix in="SourceAlpha" type="matrix" values="0 0 0 0 0 0 0 0 0 0 0 0 0 0 0 0 0 0 127 0"/>
    <feOffset/>
    <feGaussianBlur stdDeviation="3"/>
    <feColorMatrix type="matrix" values="0 0 0 0 0 0 0 0 0 0 0 0 0 0 0 0 0 0 0.05 0"/>
    <feBlend mode="normal" in2="BackgroundImageFix" result="effect1_dropShadow"/>
    <feBlend mode="normal" in="SourceGraphic" in2="effect1_dropShadow" result="shape"/>
    </filter>
    </defs>
    </svg>
    