<svg width="233" height="43" viewBox="0 0 233 43" fill="none" xmlns="http://www.w3.org/2000/svg">
    <path d="M0 21.5C0 9.62588 9.62588 0 21.5 0H211.5C223.374 0 233 9.62588 233 21.5C233 33.3741 223.374 43 211.5 43H21.5C9.62587 43 0 33.3741 0 21.5Z" fill="#5AB5F9" />
    <path d="M42.043 26.13C41.341 26.13 40.6607 26.0303 40.002 25.831C39.352 25.6317 38.8363 25.3673 38.455 25.038L39.04 23.725C39.4127 24.0197 39.8677 24.2623 40.405 24.453C40.951 24.635 41.497 24.726 42.043 24.726C42.719 24.726 43.2217 24.6177 43.551 24.401C43.889 24.1843 44.058 23.8983 44.058 23.543C44.058 23.283 43.9627 23.0707 43.772 22.906C43.59 22.7327 43.356 22.5983 43.07 22.503C42.784 22.4077 42.394 22.2993 41.9 22.178C41.2067 22.0133 40.6433 21.8487 40.21 21.684C39.7853 21.5193 39.417 21.2637 39.105 20.917C38.8017 20.5617 38.65 20.085 38.65 19.487C38.65 18.9843 38.7843 18.5293 39.053 18.122C39.3303 17.706 39.742 17.3767 40.288 17.134C40.8427 16.8913 41.5187 16.77 42.316 16.77C42.8707 16.77 43.4167 16.8393 43.954 16.978C44.4913 17.1167 44.955 17.316 45.345 17.576L44.812 18.889C44.4133 18.655 43.9973 18.4773 43.564 18.356C43.1307 18.2347 42.7103 18.174 42.303 18.174C41.6357 18.174 41.1373 18.2867 40.808 18.512C40.4873 18.7373 40.327 19.0363 40.327 19.409C40.327 19.669 40.418 19.8813 40.6 20.046C40.7907 20.2107 41.029 20.3407 41.315 20.436C41.601 20.5313 41.991 20.6397 42.485 20.761C43.161 20.917 43.7157 21.0817 44.149 21.255C44.5823 21.4197 44.9507 21.6753 45.254 22.022C45.566 22.3687 45.722 22.8367 45.722 23.426C45.722 23.9287 45.5833 24.3837 45.306 24.791C45.0373 25.1983 44.6257 25.5233 44.071 25.766C43.5163 26.0087 42.8403 26.13 42.043 26.13ZM53.7678 22.568C53.7678 22.6807 53.7591 22.841 53.7418 23.049H48.2948C48.3901 23.5603 48.6371 23.9677 49.0358 24.271C49.4431 24.5657 49.9458 24.713 50.5438 24.713C51.3064 24.713 51.9348 24.4617 52.4288 23.959L53.2998 24.96C52.9878 25.3327 52.5934 25.6143 52.1168 25.805C51.6401 25.9957 51.1028 26.091 50.5048 26.091C49.7421 26.091 49.0704 25.9393 48.4898 25.636C47.9091 25.3327 47.4584 24.9123 47.1378 24.375C46.8258 23.829 46.6698 23.2137 46.6698 22.529C46.6698 21.853 46.8214 21.2463 47.1248 20.709C47.4368 20.163 47.8658 19.7383 48.4118 19.435C48.9578 19.1317 49.5731 18.98 50.2578 18.98C50.9338 18.98 51.5361 19.1317 52.0648 19.435C52.6021 19.7297 53.0181 20.15 53.3128 20.696C53.6161 21.2333 53.7678 21.8573 53.7678 22.568ZM50.2578 20.28C49.7378 20.28 49.2958 20.436 48.9318 20.748C48.5764 21.0513 48.3598 21.4587 48.2818 21.97H52.2208C52.1514 21.4673 51.9391 21.06 51.5838 20.748C51.2284 20.436 50.7864 20.28 50.2578 20.28ZM61.8547 22.568C61.8547 22.6807 61.846 22.841 61.8287 23.049H56.3817C56.477 23.5603 56.724 23.9677 57.1227 24.271C57.53 24.5657 58.0327 24.713 58.6307 24.713C59.3934 24.713 60.0217 24.4617 60.5157 23.959L61.3867 24.96C61.0747 25.3327 60.6804 25.6143 60.2037 25.805C59.727 25.9957 59.1897 26.091 58.5917 26.091C57.829 26.091 57.1574 25.9393 56.5767 25.636C55.996 25.3327 55.5454 24.9123 55.2247 24.375C54.9127 23.829 54.7567 23.2137 54.7567 22.529C54.7567 21.853 54.9084 21.2463 55.2117 20.709C55.5237 20.163 55.9527 19.7383 56.4987 19.435C57.0447 19.1317 57.66 18.98 58.3447 18.98C59.0207 18.98 59.623 19.1317 60.1517 19.435C60.689 19.7297 61.105 20.15 61.3997 20.696C61.703 21.2333 61.8547 21.8573 61.8547 22.568ZM58.3447 20.28C57.8247 20.28 57.3827 20.436 57.0187 20.748C56.6634 21.0513 56.4467 21.4587 56.3687 21.97H60.3077C60.2384 21.4673 60.026 21.06 59.6707 20.748C59.3154 20.436 58.8734 20.28 58.3447 20.28ZM73.0664 23.894H68.5164L67.6194 26H65.8774L69.9724 16.9H71.6364L75.7444 26H73.9764L73.0664 23.894ZM72.5074 22.568L70.7914 18.59L69.0884 22.568H72.5074ZM76.7457 16.354H78.3707V26H76.7457V16.354ZM80.5035 16.354H82.1285V26H80.5035V16.354ZM90.8311 26.13C90.1291 26.13 89.4488 26.0303 88.7901 25.831C88.1401 25.6317 87.6244 25.3673 87.2431 25.038L87.8281 23.725C88.2008 24.0197 88.6558 24.2623 89.1931 24.453C89.7391 24.635 90.2851 24.726 90.8311 24.726C91.5071 24.726 92.0098 24.6177 92.3391 24.401C92.6771 24.1843 92.8461 23.8983 92.8461 23.543C92.8461 23.283 92.7508 23.0707 92.5601 22.906C92.3781 22.7327 92.1441 22.5983 91.8581 22.503C91.5721 22.4077 91.1821 22.2993 90.6881 22.178C89.9948 22.0133 89.4314 21.8487 88.9981 21.684C88.5734 21.5193 88.2051 21.2637 87.8931 20.917C87.5898 20.5617 87.4381 20.085 87.4381 19.487C87.4381 18.9843 87.5724 18.5293 87.8411 18.122C88.1184 17.706 88.5301 17.3767 89.0761 17.134C89.6308 16.8913 90.3068 16.77 91.1041 16.77C91.6588 16.77 92.2048 16.8393 92.7421 16.978C93.2794 17.1167 93.7431 17.316 94.1331 17.576L93.6001 18.889C93.2014 18.655 92.7854 18.4773 92.3521 18.356C91.9188 18.2347 91.4984 18.174 91.0911 18.174C90.4238 18.174 89.9254 18.2867 89.5961 18.512C89.2754 18.7373 89.1151 19.0363 89.1151 19.409C89.1151 19.669 89.2061 19.8813 89.3881 20.046C89.5788 20.2107 89.8171 20.3407 90.1031 20.436C90.3891 20.5313 90.7791 20.6397 91.2731 20.761C91.9491 20.917 92.5038 21.0817 92.9371 21.255C93.3704 21.4197 93.7388 21.6753 94.0421 22.022C94.3541 22.3687 94.5101 22.8367 94.5101 23.426C94.5101 23.9287 94.3714 24.3837 94.0941 24.791C93.8254 25.1983 93.4138 25.5233 92.8591 25.766C92.3044 26.0087 91.6284 26.13 90.8311 26.13ZM102.751 19.058V26H101.204V25.116C100.944 25.428 100.619 25.6707 100.229 25.844C99.8389 26.0087 99.4185 26.091 98.9679 26.091C98.0405 26.091 97.3082 25.8353 96.7709 25.324C96.2422 24.804 95.9779 24.037 95.9779 23.023V19.058H97.6029V22.802C97.6029 23.426 97.7415 23.894 98.0189 24.206C98.3049 24.5093 98.7079 24.661 99.2279 24.661C99.8085 24.661 100.268 24.4833 100.606 24.128C100.953 23.764 101.126 23.244 101.126 22.568V19.058H102.751ZM108.064 26.091C107.344 26.091 106.699 25.9393 106.127 25.636C105.555 25.3327 105.108 24.9123 104.788 24.375C104.467 23.829 104.307 23.2137 104.307 22.529C104.307 21.8443 104.467 21.2333 104.788 20.696C105.108 20.1587 105.55 19.7383 106.114 19.435C106.686 19.1317 107.336 18.98 108.064 18.98C108.748 18.98 109.346 19.1187 109.858 19.396C110.378 19.6733 110.768 20.072 111.028 20.592L109.78 21.32C109.58 20.9993 109.329 20.761 109.026 20.605C108.731 20.4403 108.406 20.358 108.051 20.358C107.444 20.358 106.941 20.5573 106.543 20.956C106.144 21.346 105.945 21.8703 105.945 22.529C105.945 23.1877 106.14 23.7163 106.53 24.115C106.928 24.505 107.435 24.7 108.051 24.7C108.406 24.7 108.731 24.622 109.026 24.466C109.329 24.3013 109.58 24.0587 109.78 23.738L111.028 24.466C110.759 24.986 110.365 25.389 109.845 25.675C109.333 25.9523 108.74 26.091 108.064 26.091ZM115.516 26.091C114.796 26.091 114.151 25.9393 113.579 25.636C113.007 25.3327 112.56 24.9123 112.24 24.375C111.919 23.829 111.759 23.2137 111.759 22.529C111.759 21.8443 111.919 21.2333 112.24 20.696C112.56 20.1587 113.002 19.7383 113.566 19.435C114.138 19.1317 114.788 18.98 115.516 18.98C116.2 18.98 116.798 19.1187 117.31 19.396C117.83 19.6733 118.22 20.072 118.48 20.592L117.232 21.32C117.032 20.9993 116.781 20.761 116.478 20.605C116.183 20.4403 115.858 20.358 115.503 20.358C114.896 20.358 114.393 20.5573 113.995 20.956C113.596 21.346 113.397 21.8703 113.397 22.529C113.397 23.1877 113.592 23.7163 113.982 24.115C114.38 24.505 114.887 24.7 115.503 24.7C115.858 24.7 116.183 24.622 116.478 24.466C116.781 24.3013 117.032 24.0587 117.232 23.738L118.48 24.466C118.211 24.986 117.817 25.389 117.297 25.675C116.785 25.9523 116.192 26.091 115.516 26.091ZM126.309 22.568C126.309 22.6807 126.3 22.841 126.283 23.049H120.836C120.931 23.5603 121.178 23.9677 121.577 24.271C121.984 24.5657 122.487 24.713 123.085 24.713C123.847 24.713 124.476 24.4617 124.97 23.959L125.841 24.96C125.529 25.3327 125.134 25.6143 124.658 25.805C124.181 25.9957 123.644 26.091 123.046 26.091C122.283 26.091 121.611 25.9393 121.031 25.636C120.45 25.3327 119.999 24.9123 119.679 24.375C119.367 23.829 119.211 23.2137 119.211 22.529C119.211 21.853 119.362 21.2463 119.666 20.709C119.978 20.163 120.407 19.7383 120.953 19.435C121.499 19.1317 122.114 18.98 122.799 18.98C123.475 18.98 124.077 19.1317 124.606 19.435C125.143 19.7297 125.559 20.15 125.854 20.696C126.157 21.2333 126.309 21.8573 126.309 22.568ZM122.799 20.28C122.279 20.28 121.837 20.436 121.473 20.748C121.117 21.0513 120.901 21.4587 120.823 21.97H124.762C124.692 21.4673 124.48 21.06 124.125 20.748C123.769 20.436 123.327 20.28 122.799 20.28ZM130.015 26.091C129.451 26.091 128.901 26.0173 128.364 25.87C127.826 25.7227 127.397 25.5363 127.077 25.311L127.701 24.076C128.013 24.284 128.385 24.453 128.819 24.583C129.261 24.7043 129.694 24.765 130.119 24.765C131.089 24.765 131.575 24.5093 131.575 23.998C131.575 23.7553 131.449 23.5863 131.198 23.491C130.955 23.3957 130.561 23.3047 130.015 23.218C129.443 23.1313 128.975 23.0317 128.611 22.919C128.255 22.8063 127.943 22.6113 127.675 22.334C127.415 22.048 127.285 21.6537 127.285 21.151C127.285 20.4923 127.558 19.968 128.104 19.578C128.658 19.1793 129.404 18.98 130.34 18.98C130.816 18.98 131.293 19.0363 131.77 19.149C132.246 19.253 132.636 19.396 132.94 19.578L132.316 20.813C131.726 20.4663 131.063 20.293 130.327 20.293C129.85 20.293 129.486 20.3667 129.235 20.514C128.992 20.6527 128.871 20.839 128.871 21.073C128.871 21.333 129.001 21.5193 129.261 21.632C129.529 21.736 129.941 21.8357 130.496 21.931C131.05 22.0177 131.505 22.1173 131.861 22.23C132.216 22.3427 132.519 22.5333 132.771 22.802C133.031 23.0707 133.161 23.452 133.161 23.946C133.161 24.596 132.879 25.116 132.316 25.506C131.752 25.896 130.985 26.091 130.015 26.091ZM136.705 26.091C136.142 26.091 135.591 26.0173 135.054 25.87C134.517 25.7227 134.088 25.5363 133.767 25.311L134.391 24.076C134.703 24.284 135.076 24.453 135.509 24.583C135.951 24.7043 136.384 24.765 136.809 24.765C137.78 24.765 138.265 24.5093 138.265 23.998C138.265 23.7553 138.139 23.5863 137.888 23.491C137.645 23.3957 137.251 23.3047 136.705 23.218C136.133 23.1313 135.665 23.0317 135.301 22.919C134.946 22.8063 134.634 22.6113 134.365 22.334C134.105 22.048 133.975 21.6537 133.975 21.151C133.975 20.4923 134.248 19.968 134.794 19.578C135.349 19.1793 136.094 18.98 137.03 18.98C137.507 18.98 137.983 19.0363 138.46 19.149C138.937 19.253 139.327 19.396 139.63 19.578L139.006 20.813C138.417 20.4663 137.754 20.293 137.017 20.293C136.54 20.293 136.176 20.3667 135.925 20.514C135.682 20.6527 135.561 20.839 135.561 21.073C135.561 21.333 135.691 21.5193 135.951 21.632C136.22 21.736 136.631 21.8357 137.186 21.931C137.741 22.0177 138.196 22.1173 138.551 22.23C138.906 22.3427 139.21 22.5333 139.461 22.802C139.721 23.0707 139.851 23.452 139.851 23.946C139.851 24.596 139.569 25.116 139.006 25.506C138.443 25.896 137.676 26.091 136.705 26.091ZM147.82 26.13C147.118 26.13 146.438 26.0303 145.779 25.831C145.129 25.6317 144.614 25.3673 144.232 25.038L144.817 23.725C145.19 24.0197 145.645 24.2623 146.182 24.453C146.728 24.635 147.274 24.726 147.82 24.726C148.496 24.726 148.999 24.6177 149.328 24.401C149.666 24.1843 149.835 23.8983 149.835 23.543C149.835 23.283 149.74 23.0707 149.549 22.906C149.367 22.7327 149.133 22.5983 148.847 22.503C148.561 22.4077 148.171 22.2993 147.677 22.178C146.984 22.0133 146.421 21.8487 145.987 21.684C145.563 21.5193 145.194 21.2637 144.882 20.917C144.579 20.5617 144.427 20.085 144.427 19.487C144.427 18.9843 144.562 18.5293 144.83 18.122C145.108 17.706 145.519 17.3767 146.065 17.134C146.62 16.8913 147.296 16.77 148.093 16.77C148.648 16.77 149.194 16.8393 149.731 16.978C150.269 17.1167 150.732 17.316 151.122 17.576L150.589 18.889C150.191 18.655 149.775 18.4773 149.341 18.356C148.908 18.2347 148.488 18.174 148.08 18.174C147.413 18.174 146.915 18.2867 146.585 18.512C146.265 18.7373 146.104 19.0363 146.104 19.409C146.104 19.669 146.195 19.8813 146.377 20.046C146.568 20.2107 146.806 20.3407 147.092 20.436C147.378 20.5313 147.768 20.6397 148.262 20.761C148.938 20.917 149.493 21.0817 149.926 21.255C150.36 21.4197 150.728 21.6753 151.031 22.022C151.343 22.3687 151.499 22.8367 151.499 23.426C151.499 23.9287 151.361 24.3837 151.083 24.791C150.815 25.1983 150.403 25.5233 149.848 25.766C149.294 26.0087 148.618 26.13 147.82 26.13ZM157.192 25.623C157.001 25.779 156.767 25.896 156.49 25.974C156.221 26.052 155.935 26.091 155.632 26.091C154.869 26.091 154.28 25.8917 153.864 25.493C153.448 25.0943 153.24 24.5137 153.24 23.751V20.41H152.096V19.11H153.24V17.524H154.865V19.11H156.724V20.41H154.865V23.712C154.865 24.05 154.947 24.31 155.112 24.492C155.277 24.6653 155.515 24.752 155.827 24.752C156.191 24.752 156.494 24.6567 156.737 24.466L157.192 25.623ZM161.42 26.091C160.718 26.091 160.086 25.9393 159.522 25.636C158.959 25.3327 158.517 24.9123 158.196 24.375C157.884 23.829 157.728 23.2137 157.728 22.529C157.728 21.8443 157.884 21.2333 158.196 20.696C158.517 20.1587 158.959 19.7383 159.522 19.435C160.086 19.1317 160.718 18.98 161.42 18.98C162.131 18.98 162.768 19.1317 163.331 19.435C163.895 19.7383 164.332 20.1587 164.644 20.696C164.965 21.2333 165.125 21.8443 165.125 22.529C165.125 23.2137 164.965 23.829 164.644 24.375C164.332 24.9123 163.895 25.3327 163.331 25.636C162.768 25.9393 162.131 26.091 161.42 26.091ZM161.42 24.7C162.018 24.7 162.512 24.5007 162.902 24.102C163.292 23.7033 163.487 23.179 163.487 22.529C163.487 21.879 163.292 21.3547 162.902 20.956C162.512 20.5573 162.018 20.358 161.42 20.358C160.822 20.358 160.328 20.5573 159.938 20.956C159.557 21.3547 159.366 21.879 159.366 22.529C159.366 23.179 159.557 23.7033 159.938 24.102C160.328 24.5007 160.822 24.7 161.42 24.7ZM168.226 20.072C168.694 19.344 169.518 18.98 170.696 18.98V20.527C170.558 20.501 170.432 20.488 170.319 20.488C169.687 20.488 169.193 20.6743 168.837 21.047C168.482 21.411 168.304 21.9397 168.304 22.633V26H166.679V19.058H168.226V20.072ZM172.075 19.058H173.7V26H172.075V19.058ZM172.894 17.914C172.599 17.914 172.352 17.823 172.153 17.641C171.953 17.4503 171.854 17.2163 171.854 16.939C171.854 16.6617 171.953 16.432 172.153 16.25C172.352 16.0593 172.599 15.964 172.894 15.964C173.188 15.964 173.435 16.055 173.635 16.237C173.834 16.4103 173.934 16.6313 173.934 16.9C173.934 17.186 173.834 17.4287 173.635 17.628C173.444 17.8187 173.197 17.914 172.894 17.914ZM182.359 22.568C182.359 22.6807 182.35 22.841 182.333 23.049H176.886C176.981 23.5603 177.228 23.9677 177.627 24.271C178.034 24.5657 178.537 24.713 179.135 24.713C179.897 24.713 180.526 24.4617 181.02 23.959L181.891 24.96C181.579 25.3327 181.184 25.6143 180.708 25.805C180.231 25.9957 179.694 26.091 179.096 26.091C178.333 26.091 177.661 25.9393 177.081 25.636C176.5 25.3327 176.049 24.9123 175.729 24.375C175.417 23.829 175.261 23.2137 175.261 22.529C175.261 21.853 175.412 21.2463 175.716 20.709C176.028 20.163 176.457 19.7383 177.003 19.435C177.549 19.1317 178.164 18.98 178.849 18.98C179.525 18.98 180.127 19.1317 180.656 19.435C181.193 19.7297 181.609 20.15 181.904 20.696C182.207 21.2333 182.359 21.8573 182.359 22.568ZM178.849 20.28C178.329 20.28 177.887 20.436 177.523 20.748C177.167 21.0513 176.951 21.4587 176.873 21.97H180.812C180.742 21.4673 180.53 21.06 180.175 20.748C179.819 20.436 179.377 20.28 178.849 20.28ZM186.065 26.091C185.501 26.091 184.951 26.0173 184.414 25.87C183.876 25.7227 183.447 25.5363 183.127 25.311L183.751 24.076C184.063 24.284 184.435 24.453 184.869 24.583C185.311 24.7043 185.744 24.765 186.169 24.765C187.139 24.765 187.625 24.5093 187.625 23.998C187.625 23.7553 187.499 23.5863 187.248 23.491C187.005 23.3957 186.611 23.3047 186.065 23.218C185.493 23.1313 185.025 23.0317 184.661 22.919C184.305 22.8063 183.993 22.6113 183.725 22.334C183.465 22.048 183.335 21.6537 183.335 21.151C183.335 20.4923 183.608 19.968 184.154 19.578C184.708 19.1793 185.454 18.98 186.39 18.98C186.866 18.98 187.343 19.0363 187.82 19.149C188.296 19.253 188.686 19.396 188.99 19.578L188.366 20.813C187.776 20.4663 187.113 20.293 186.377 20.293C185.9 20.293 185.536 20.3667 185.285 20.514C185.042 20.6527 184.921 20.839 184.921 21.073C184.921 21.333 185.051 21.5193 185.311 21.632C185.579 21.736 185.991 21.8357 186.546 21.931C187.1 22.0177 187.555 22.1173 187.911 22.23C188.266 22.3427 188.569 22.5333 188.821 22.802C189.081 23.0707 189.211 23.452 189.211 23.946C189.211 24.596 188.929 25.116 188.366 25.506C187.802 25.896 187.035 26.091 186.065 26.091Z" fill="white" />
</svg>
    