<svg width="1440" height="703" viewBox="0 0 1440 703" fill="none" xmlns="http://www.w3.org/2000/svg">
    <mask id="mask0" mask-type="alpha" maskUnits="userSpaceOnUse" x="0" y="-1" width="1440" height="704">
        <path d="M0 -1H1440V666C1440 666 1236.5 583.327 778 666C319.5 748.673 0 666 0 666V-1Z" fill="#C4C4C4" />
        <path d="M0 -1H1440V666C1440 666 1236.5 583.327 778 666C319.5 748.673 0 666 0 666V-1Z" fill="url(#paint0_linear)" />
    </mask>
    <g mask="url(#mask0)">
        <mask id="mask1" mask-type="alpha" maskUnits="userSpaceOnUse" x="0" y="25" width="1440" height="676">
            <path d="M0 25H1440V665.705C1440 665.705 1236.5 586.292 778 665.705C319.5 745.119 0 665.705 0 665.705V25Z" fill="#C4C4C4" />
            <path d="M0 25H1440V665.705C1440 665.705 1236.5 586.292 778 665.705C319.5 745.119 0 665.705 0 665.705V25Z" fill="url(#paint1_linear)" />
        </mask>
        <g mask="url(#mask1)">
            <path d="M640.5 645.5C344.1 701.9 70.3333 649.333 -29.5 616V767.5L1481 745.5C1576 751.667 1709 740.3 1481 645.5C1196 527 1011 575 640.5 645.5Z" fill="#D2EDFF" fill-opacity="0.21" />
        </g>
        <path d="M409.5 644C208.3 658 36.3333 611.5 -24.5 586.5V680L175 774.5L1488 680V602.5C1435.67 567 1286.2 495.2 1107 492C883 488 661 626.5 409.5 644Z" fill="#D3E5FF" fill-opacity="0.12" />
    </g>
    <defs>
        <linearGradient id="paint0_linear" x1="720" y1="-1" x2="720" y2="666" gradientUnits="userSpaceOnUse">
            <stop stop-color="#0D4FD7" />
            <stop offset="1" stop-color="#55BBFF" />
        </linearGradient>
        <linearGradient id="paint1_linear" x1="720" y1="25" x2="720" y2="665.705" gradientUnits="userSpaceOnUse">
            <stop stop-color="#0D4FD7" />
            <stop offset="1" stop-color="#55BBFF" />
        </linearGradient>
    </defs>
</svg>
